<svg width="602" height="282" viewBox="0 0 602 282" fill="none" xmlns="http://www.w3.org/2000/svg">
<g filter="url(#filter0_b_2777_51427)">
<path d="M0 7.99999C0 3.58172 3.58172 0 8 0H594C598.418 0 602 3.58172 602 8V274C602 278.418 598.418 282 594 282H8C3.58172 282 0 278.418 0 274V7.99999Z" fill="#F4F2FF"/>
<path d="M0.75 7.99999C0.75 3.99593 3.99593 0.75 8 0.75H594C598.004 0.75 601.25 3.99594 601.25 8V274C601.25 278.004 598.004 281.25 594 281.25H8C3.99593 281.25 0.75 278.004 0.75 274V7.99999Z" stroke="#7932FF" stroke-width="1.5"/>
<g clip-path="url(#clip0_2777_51427)">
<path d="M19.424 32.456H24.992V34.168H19.424V32.456ZM19.584 37.256H25.904V39H17.504V27.8H25.68V29.544H19.584V37.256ZM32.8788 30.36C33.5614 30.36 34.1694 30.4933 34.7028 30.76C35.2468 31.0267 35.6734 31.4373 35.9828 31.992C36.2921 32.536 36.4468 33.24 36.4468 34.104V39H34.4468V34.36C34.4468 33.6027 34.2654 33.0373 33.9028 32.664C33.5508 32.2907 33.0548 32.104 32.4148 32.104C31.9454 32.104 31.5294 32.2 31.1668 32.392C30.8041 32.584 30.5214 32.872 30.3188 33.256C30.1268 33.6293 30.0308 34.104 30.0308 34.68V39H28.0308V30.456H29.9348V32.76L29.5988 32.056C29.8974 31.512 30.3294 31.096 30.8948 30.808C31.4708 30.5093 32.1321 30.36 32.8788 30.36ZM43.0155 39.112C42.0662 39.112 41.2342 38.9253 40.5195 38.552C39.8155 38.168 39.2662 37.6453 38.8715 36.984C38.4875 36.3227 38.2955 35.5707 38.2955 34.728C38.2955 33.8747 38.4822 33.1227 38.8555 32.472C39.2395 31.8107 39.7622 31.2933 40.4235 30.92C41.0955 30.5467 41.8582 30.36 42.7115 30.36C43.5435 30.36 44.2848 30.5413 44.9355 30.904C45.5862 31.2667 46.0982 31.7787 46.4715 32.44C46.8448 33.1013 47.0315 33.88 47.0315 34.776C47.0315 34.8613 47.0262 34.9573 47.0155 35.064C47.0155 35.1707 47.0102 35.272 46.9995 35.368H39.8795V34.04H45.9435L45.1595 34.456C45.1702 33.9653 45.0688 33.5333 44.8555 33.16C44.6422 32.7867 44.3488 32.4933 43.9755 32.28C43.6128 32.0667 43.1915 31.96 42.7115 31.96C42.2208 31.96 41.7888 32.0667 41.4155 32.28C41.0528 32.4933 40.7648 32.792 40.5515 33.176C40.3488 33.5493 40.2475 33.992 40.2475 34.504V34.824C40.2475 35.336 40.3648 35.7893 40.5995 36.184C40.8342 36.5787 41.1648 36.8827 41.5915 37.096C42.0182 37.3093 42.5088 37.416 43.0635 37.416C43.5435 37.416 43.9755 37.3413 44.3595 37.192C44.7435 37.0427 45.0848 36.808 45.3835 36.488L46.4555 37.72C46.0715 38.168 45.5862 38.5147 44.9995 38.76C44.4235 38.9947 43.7622 39.112 43.0155 39.112ZM48.9526 39V30.456H50.8566V32.808L50.6326 32.12C50.8886 31.544 51.2886 31.1067 51.8326 30.808C52.3873 30.5093 53.0753 30.36 53.8966 30.36V32.264C53.8113 32.2427 53.7313 32.232 53.6566 32.232C53.582 32.2213 53.5073 32.216 53.4326 32.216C52.6753 32.216 52.0726 32.44 51.6246 32.888C51.1766 33.3253 50.9526 33.9813 50.9526 34.856V39H48.9526ZM59.3871 42.216C58.5978 42.216 57.8245 42.1093 57.0671 41.896C56.3205 41.6933 55.7071 41.3947 55.2271 41L56.1231 39.496C56.4965 39.8053 56.9658 40.0507 57.5311 40.232C58.1071 40.424 58.6885 40.52 59.2751 40.52C60.2138 40.52 60.9018 40.3013 61.3391 39.864C61.7765 39.4373 61.9951 38.792 61.9951 37.928V36.408L62.1551 34.472L62.0911 32.536V30.456H63.9951V37.704C63.9951 39.2507 63.6005 40.3867 62.8111 41.112C62.0218 41.848 60.8805 42.216 59.3871 42.216ZM59.1311 38.616C58.3205 38.616 57.5845 38.4453 56.9231 38.104C56.2725 37.752 55.7551 37.2667 55.3711 36.648C54.9978 36.0293 54.8111 35.304 54.8111 34.472C54.8111 33.6507 54.9978 32.9307 55.3711 32.312C55.7551 31.6933 56.2725 31.2133 56.9231 30.872C57.5845 30.5307 58.3205 30.36 59.1311 30.36C59.8565 30.36 60.5071 30.504 61.0831 30.792C61.6591 31.08 62.1178 31.528 62.4591 32.136C62.8111 32.744 62.9871 33.5227 62.9871 34.472C62.9871 35.4213 62.8111 36.2053 62.4591 36.824C62.1178 37.432 61.6591 37.8853 61.0831 38.184C60.5071 38.472 59.8565 38.616 59.1311 38.616ZM59.4351 36.92C59.9365 36.92 60.3845 36.8187 60.7791 36.616C61.1738 36.4027 61.4778 36.1147 61.6911 35.752C61.9151 35.3787 62.0271 34.952 62.0271 34.472C62.0271 33.992 61.9151 33.5707 61.6911 33.208C61.4778 32.8347 61.1738 32.552 60.7791 32.36C60.3845 32.1573 59.9365 32.056 59.4351 32.056C58.9338 32.056 58.4805 32.1573 58.0751 32.36C57.6805 32.552 57.3711 32.8347 57.1471 33.208C56.9338 33.5707 56.8271 33.992 56.8271 34.472C56.8271 34.952 56.9338 35.3787 57.1471 35.752C57.3711 36.1147 57.6805 36.4027 58.0751 36.616C58.4805 36.8187 58.9338 36.92 59.4351 36.92ZM67.3285 42.216C66.9125 42.216 66.4965 42.1467 66.0805 42.008C65.6645 41.8693 65.3178 41.6773 65.0405 41.432L65.8405 39.96C66.0432 40.1413 66.2725 40.2853 66.5285 40.392C66.7845 40.4987 67.0458 40.552 67.3125 40.552C67.6752 40.552 67.9685 40.4613 68.1925 40.28C68.4165 40.0987 68.6245 39.7947 68.8165 39.368L69.3125 38.248L69.4725 38.008L72.7045 30.456H74.6245L70.6245 39.688C70.3578 40.328 70.0592 40.8347 69.7285 41.208C69.4085 41.5813 69.0458 41.8427 68.6405 41.992C68.2458 42.1413 67.8085 42.216 67.3285 42.216ZM69.0885 39.304L65.2325 30.456H67.3125L70.4485 37.832L69.0885 39.304ZM85.6724 39.16C84.819 39.16 84.0244 39.0213 83.2884 38.744C82.563 38.456 81.9284 38.056 81.3844 37.544C80.851 37.0213 80.435 36.408 80.1364 35.704C79.8377 35 79.6884 34.232 79.6884 33.4C79.6884 32.568 79.8377 31.8 80.1364 31.096C80.435 30.392 80.8564 29.784 81.4004 29.272C81.9444 28.7493 82.579 28.3493 83.3044 28.072C84.0297 27.784 84.8244 27.64 85.6884 27.64C86.6057 27.64 87.443 27.8 88.2004 28.12C88.9577 28.4293 89.5977 28.8933 90.1204 29.512L88.7764 30.776C88.371 30.3387 87.9177 30.0133 87.4164 29.8C86.915 29.576 86.371 29.464 85.7844 29.464C85.1977 29.464 84.659 29.56 84.1684 29.752C83.6884 29.944 83.267 30.216 82.9044 30.568C82.5524 30.92 82.275 31.336 82.0724 31.816C81.8804 32.296 81.7844 32.824 81.7844 33.4C81.7844 33.976 81.8804 34.504 82.0724 34.984C82.275 35.464 82.5524 35.88 82.9044 36.232C83.267 36.584 83.6884 36.856 84.1684 37.048C84.659 37.24 85.1977 37.336 85.7844 37.336C86.371 37.336 86.915 37.2293 87.4164 37.016C87.9177 36.792 88.371 36.456 88.7764 36.008L90.1204 37.288C89.5977 37.896 88.9577 38.36 88.2004 38.68C87.443 39 86.6004 39.16 85.6724 39.16ZM95.4333 39.112C94.5586 39.112 93.7799 38.9253 93.0973 38.552C92.4146 38.168 91.8759 37.6453 91.4813 36.984C91.0866 36.3227 90.8893 35.5707 90.8893 34.728C90.8893 33.8747 91.0866 33.1227 91.4813 32.472C91.8759 31.8107 92.4146 31.2933 93.0973 30.92C93.7799 30.5467 94.5586 30.36 95.4333 30.36C96.3186 30.36 97.1026 30.5467 97.7853 30.92C98.4786 31.2933 99.0173 31.8053 99.4013 32.456C99.7959 33.1067 99.9933 33.864 99.9933 34.728C99.9933 35.5707 99.7959 36.3227 99.4013 36.984C99.0173 37.6453 98.4786 38.168 97.7853 38.552C97.1026 38.9253 96.3186 39.112 95.4333 39.112ZM95.4333 37.4C95.9239 37.4 96.3613 37.2933 96.7453 37.08C97.1293 36.8667 97.4279 36.5573 97.6413 36.152C97.8653 35.7467 97.9773 35.272 97.9773 34.728C97.9773 34.1733 97.8653 33.6987 97.6413 33.304C97.4279 32.8987 97.1293 32.5893 96.7453 32.376C96.3613 32.1627 95.9293 32.056 95.4493 32.056C94.9586 32.056 94.5213 32.1627 94.1373 32.376C93.7639 32.5893 93.4653 32.8987 93.2413 33.304C93.0173 33.6987 92.9053 34.1733 92.9053 34.728C92.9053 35.272 93.0173 35.7467 93.2413 36.152C93.4653 36.5573 93.7639 36.8667 94.1373 37.08C94.5213 37.2933 94.9533 37.4 95.4333 37.4ZM106.754 30.36C107.436 30.36 108.044 30.4933 108.578 30.76C109.122 31.0267 109.548 31.4373 109.858 31.992C110.167 32.536 110.322 33.24 110.322 34.104V39H108.322V34.36C108.322 33.6027 108.14 33.0373 107.778 32.664C107.426 32.2907 106.93 32.104 106.29 32.104C105.82 32.104 105.404 32.2 105.042 32.392C104.679 32.584 104.396 32.872 104.194 33.256C104.002 33.6293 103.906 34.104 103.906 34.68V39H101.906V30.456H103.81V32.76L103.474 32.056C103.772 31.512 104.204 31.096 104.77 30.808C105.346 30.5093 106.007 30.36 106.754 30.36ZM115.499 39.112C114.784 39.112 114.096 39.0213 113.435 38.84C112.784 38.648 112.267 38.4187 111.883 38.152L112.651 36.632C113.035 36.8773 113.494 37.08 114.027 37.24C114.56 37.4 115.094 37.48 115.627 37.48C116.256 37.48 116.71 37.3947 116.987 37.224C117.275 37.0533 117.419 36.824 117.419 36.536C117.419 36.3013 117.323 36.1253 117.131 36.008C116.939 35.88 116.688 35.784 116.379 35.72C116.07 35.656 115.723 35.5973 115.339 35.544C114.966 35.4907 114.587 35.4213 114.203 35.336C113.83 35.24 113.488 35.1067 113.179 34.936C112.87 34.7547 112.619 34.5147 112.427 34.216C112.235 33.9173 112.139 33.5227 112.139 33.032C112.139 32.488 112.294 32.0187 112.603 31.624C112.912 31.2187 113.344 30.9093 113.899 30.696C114.464 30.472 115.131 30.36 115.899 30.36C116.475 30.36 117.056 30.424 117.643 30.552C118.23 30.68 118.715 30.8613 119.099 31.096L118.331 32.616C117.926 32.3707 117.515 32.2053 117.099 32.12C116.694 32.024 116.288 31.976 115.883 31.976C115.275 31.976 114.822 32.0667 114.523 32.248C114.235 32.4293 114.091 32.6587 114.091 32.936C114.091 33.192 114.187 33.384 114.379 33.512C114.571 33.64 114.822 33.7413 115.131 33.816C115.44 33.8907 115.782 33.9547 116.155 34.008C116.539 34.0507 116.918 34.12 117.291 34.216C117.664 34.312 118.006 34.4453 118.315 34.616C118.635 34.776 118.891 35.0053 119.083 35.304C119.275 35.6027 119.371 35.992 119.371 36.472C119.371 37.0053 119.211 37.4693 118.891 37.864C118.582 38.2587 118.139 38.568 117.563 38.792C116.987 39.0053 116.299 39.112 115.499 39.112ZM124.709 39.112C123.984 39.112 123.344 38.9787 122.789 38.712C122.235 38.4347 121.803 38.0187 121.493 37.464C121.184 36.8987 121.029 36.1893 121.029 35.336V30.456H123.029V35.064C123.029 35.832 123.2 36.408 123.541 36.792C123.893 37.1653 124.389 37.352 125.029 37.352C125.499 37.352 125.904 37.256 126.245 37.064C126.597 36.872 126.869 36.584 127.061 36.2C127.264 35.816 127.365 35.3413 127.365 34.776V30.456H129.365V39H127.461V36.696L127.797 37.4C127.509 37.9547 127.088 38.3813 126.533 38.68C125.979 38.968 125.371 39.112 124.709 39.112ZM142.768 30.36C143.451 30.36 144.053 30.4933 144.576 30.76C145.109 31.0267 145.525 31.4373 145.824 31.992C146.123 32.536 146.272 33.24 146.272 34.104V39H144.272V34.36C144.272 33.6027 144.107 33.0373 143.776 32.664C143.445 32.2907 142.971 32.104 142.352 32.104C141.915 32.104 141.525 32.2 141.184 32.392C140.853 32.584 140.592 32.8667 140.4 33.24C140.219 33.6133 140.128 34.088 140.128 34.664V39H138.128V34.36C138.128 33.6027 137.963 33.0373 137.632 32.664C137.301 32.2907 136.827 32.104 136.208 32.104C135.771 32.104 135.381 32.2 135.04 32.392C134.709 32.584 134.448 32.8667 134.256 33.24C134.075 33.6133 133.984 34.088 133.984 34.664V39H131.984V30.456H133.888V32.728L133.552 32.056C133.84 31.5013 134.256 31.08 134.8 30.792C135.355 30.504 135.984 30.36 136.688 30.36C137.488 30.36 138.181 30.5573 138.768 30.952C139.365 31.3467 139.76 31.944 139.952 32.744L139.168 32.472C139.445 31.832 139.904 31.32 140.544 30.936C141.184 30.552 141.925 30.36 142.768 30.36ZM153.564 39.112C152.87 39.112 152.236 38.952 151.66 38.632C151.094 38.312 150.641 37.832 150.3 37.192C149.969 36.5413 149.804 35.72 149.804 34.728C149.804 33.7253 149.964 32.904 150.284 32.264C150.614 31.624 151.062 31.1493 151.628 30.84C152.193 30.52 152.838 30.36 153.564 30.36C154.406 30.36 155.148 30.5413 155.788 30.904C156.438 31.2667 156.95 31.7733 157.324 32.424C157.708 33.0747 157.9 33.8427 157.9 34.728C157.9 35.6133 157.708 36.3867 157.324 37.048C156.95 37.6987 156.438 38.2053 155.788 38.568C155.148 38.9307 154.406 39.112 153.564 39.112ZM148.828 42.104V30.456H150.732V32.472L150.668 34.744L150.828 37.016V42.104H148.828ZM153.34 37.4C153.82 37.4 154.246 37.2933 154.62 37.08C155.004 36.8667 155.308 36.5573 155.532 36.152C155.756 35.7467 155.868 35.272 155.868 34.728C155.868 34.1733 155.756 33.6987 155.532 33.304C155.308 32.8987 155.004 32.5893 154.62 32.376C154.246 32.1627 153.82 32.056 153.34 32.056C152.86 32.056 152.428 32.1627 152.044 32.376C151.66 32.5893 151.356 32.8987 151.132 33.304C150.908 33.6987 150.796 34.1733 150.796 34.728C150.796 35.272 150.908 35.7467 151.132 36.152C151.356 36.5573 151.66 36.8667 152.044 37.08C152.428 37.2933 152.86 37.4 153.34 37.4ZM163.012 39.112C162.074 39.112 161.348 38.872 160.836 38.392C160.324 37.9013 160.068 37.1813 160.068 36.232V28.568H162.068V36.184C162.068 36.5893 162.17 36.904 162.372 37.128C162.586 37.352 162.879 37.464 163.252 37.464C163.7 37.464 164.074 37.3467 164.372 37.112L164.932 38.536C164.698 38.728 164.41 38.872 164.068 38.968C163.727 39.064 163.375 39.112 163.012 39.112ZM158.66 32.12V30.52H164.356V32.12H158.66ZM166.578 39V30.456H168.578V39H166.578ZM167.586 29.048C167.212 29.048 166.903 28.9307 166.658 28.696C166.423 28.4613 166.306 28.1787 166.306 27.848C166.306 27.5067 166.423 27.224 166.658 27C166.903 26.7653 167.212 26.648 167.586 26.648C167.959 26.648 168.263 26.76 168.498 26.984C168.743 27.1973 168.866 27.4693 168.866 27.8C168.866 28.152 168.748 28.4507 168.514 28.696C168.279 28.9307 167.97 29.048 167.586 29.048ZM175.043 39.112C174.168 39.112 173.389 38.9253 172.707 38.552C172.024 38.168 171.485 37.6453 171.091 36.984C170.696 36.3227 170.499 35.5707 170.499 34.728C170.499 33.8747 170.696 33.1227 171.091 32.472C171.485 31.8107 172.024 31.2933 172.707 30.92C173.389 30.5467 174.168 30.36 175.043 30.36C175.928 30.36 176.712 30.5467 177.395 30.92C178.088 31.2933 178.627 31.8053 179.011 32.456C179.405 33.1067 179.603 33.864 179.603 34.728C179.603 35.5707 179.405 36.3227 179.011 36.984C178.627 37.6453 178.088 38.168 177.395 38.552C176.712 38.9253 175.928 39.112 175.043 39.112ZM175.043 37.4C175.533 37.4 175.971 37.2933 176.355 37.08C176.739 36.8667 177.037 36.5573 177.251 36.152C177.475 35.7467 177.587 35.272 177.587 34.728C177.587 34.1733 177.475 33.6987 177.251 33.304C177.037 32.8987 176.739 32.5893 176.355 32.376C175.971 32.1627 175.539 32.056 175.059 32.056C174.568 32.056 174.131 32.1627 173.747 32.376C173.373 32.5893 173.075 32.8987 172.851 33.304C172.627 33.6987 172.515 34.1733 172.515 34.728C172.515 35.272 172.627 35.7467 172.851 36.152C173.075 36.5573 173.373 36.8667 173.747 37.08C174.131 37.2933 174.563 37.4 175.043 37.4ZM186.363 30.36C187.046 30.36 187.654 30.4933 188.187 30.76C188.731 31.0267 189.158 31.4373 189.467 31.992C189.776 32.536 189.931 33.24 189.931 34.104V39H187.931V34.36C187.931 33.6027 187.75 33.0373 187.387 32.664C187.035 32.2907 186.539 32.104 185.899 32.104C185.43 32.104 185.014 32.2 184.651 32.392C184.288 32.584 184.006 32.872 183.803 33.256C183.611 33.6293 183.515 34.104 183.515 34.68V39H181.515V30.456H183.419V32.76L183.083 32.056C183.382 31.512 183.814 31.096 184.379 30.808C184.955 30.5093 185.616 30.36 186.363 30.36Z" fill="#080708"/>
<path d="M554 25C554 20.5817 557.582 17 562 17H578C582.418 17 586 20.5817 586 25V41C586 45.4183 582.418 49 578 49H562C557.582 49 554 45.4183 554 41V25Z" fill="#4E4C4F" fill-opacity="0.1"/>
<path d="M573.693 30.8733C574.783 30.8733 575.666 29.9898 575.666 28.9C575.666 27.8101 574.783 26.9266 573.693 26.9266C572.603 26.9266 571.72 27.8101 571.72 28.9C571.72 29.9898 572.603 30.8733 573.693 30.8733Z" fill="#080708"/>
<path d="M566.306 30.8733C567.396 30.8733 568.28 29.9898 568.28 28.9C568.28 27.8101 567.396 26.9266 566.306 26.9266C565.216 26.9266 564.333 27.8101 564.333 28.9C564.333 29.9898 565.216 30.8733 566.306 30.8733Z" fill="#080708"/>
<path d="M573.693 39.0734C574.783 39.0734 575.666 38.1899 575.666 37.1C575.666 36.0102 574.783 35.1267 573.693 35.1267C572.603 35.1267 571.72 36.0102 571.72 37.1C571.72 38.1899 572.603 39.0734 573.693 39.0734Z" fill="#080708"/>
<path d="M566.306 39.0734C567.396 39.0734 568.28 38.1899 568.28 37.1C568.28 36.0102 567.396 35.1267 566.306 35.1267C565.216 35.1267 564.333 36.0102 564.333 37.1C564.333 38.1899 565.216 39.0734 566.306 39.0734Z" fill="#080708"/>
</g>
<g clip-path="url(#clip1_2777_51427)">
<path fill-rule="evenodd" clip-rule="evenodd" d="M584.021 267H16V220.06C18.8602 218.23 42.0076 105.368 68.9417 102.077C105.062 89.9996 121.917 157.681 158.5 154.162C187.255 151.396 218.832 109.903 251.15 107.152C283.106 104.431 316.455 156.573 348.5 154.162C379.935 151.797 405.054 103.862 433.357 102.077C470.094 99.7601 502.48 154.964 527.77 154.162C560.641 153.121 584.021 197.853 584.021 200.553C584.021 214.632 584.021 231.467 584.021 267Z" fill="#DF2935" fill-opacity="0.2"/>
</g>
<path d="M16.499 249.423H22.1222" stroke="#ABADB1" stroke-width="0.44182"/>
<path d="M16.499 212.469H22.1222" stroke="#ABADB1" stroke-width="0.44182"/>
<path d="M16.499 173.81H22.1222" stroke="#ABADB1" stroke-width="0.44182"/>
<path d="M16.499 135.152H22.1222" stroke="#ABADB1" stroke-width="0.44182"/>
<path d="M16.499 94.7836H22.1222" stroke="#ABADB1" stroke-width="0.44182"/>
<g clip-path="url(#clip2_2777_51427)">
<path d="M26.691 96.1233C26.2377 96.1233 25.8457 96.0567 25.515 95.9233C25.1844 95.79 24.9284 95.6007 24.747 95.3553C24.5657 95.1047 24.475 94.8113 24.475 94.4753C24.475 94.1447 24.5604 93.8647 24.731 93.6353C24.907 93.4007 25.1604 93.2247 25.491 93.1073C25.8217 92.9847 26.2217 92.9233 26.691 92.9233C27.1604 92.9233 27.5604 92.9847 27.891 93.1073C28.227 93.2247 28.483 93.4007 28.659 93.6353C28.835 93.87 28.923 94.15 28.923 94.4753C28.923 94.8113 28.8324 95.1047 28.651 95.3553C28.4697 95.6007 28.211 95.79 27.875 95.9233C27.539 96.0567 27.1444 96.1233 26.691 96.1233ZM26.691 95.4753C27.139 95.4753 27.4884 95.3847 27.739 95.2033C27.995 95.0167 28.123 94.766 28.123 94.4513C28.123 94.142 27.995 93.8993 27.739 93.7233C27.4884 93.542 27.139 93.4513 26.691 93.4513C26.2484 93.4513 25.9017 93.542 25.651 93.7233C25.4004 93.8993 25.275 94.142 25.275 94.4513C25.275 94.766 25.4004 95.0167 25.651 95.2033C25.9017 95.3847 26.2484 95.4753 26.691 95.4753ZM26.691 93.3553C26.2644 93.3553 25.9017 93.2993 25.603 93.1873C25.3044 93.07 25.075 92.9047 24.915 92.6913C24.755 92.4727 24.675 92.214 24.675 91.9153C24.675 91.6007 24.7577 91.3313 24.923 91.1073C25.0937 90.878 25.331 90.702 25.635 90.5793C25.939 90.4567 26.291 90.3953 26.691 90.3953C27.0964 90.3953 27.451 90.4567 27.755 90.5793C28.059 90.702 28.2964 90.878 28.467 91.1073C28.6377 91.3313 28.723 91.6007 28.723 91.9153C28.723 92.214 28.643 92.4727 28.483 92.6913C28.323 92.9047 28.091 93.07 27.787 93.1873C27.483 93.2993 27.1177 93.3553 26.691 93.3553ZM26.691 92.8433C27.0804 92.8433 27.3844 92.7633 27.603 92.6033C27.827 92.4433 27.939 92.2247 27.939 91.9473C27.939 91.6647 27.8244 91.4433 27.595 91.2833C27.3657 91.1233 27.0644 91.0433 26.691 91.0433C26.3177 91.0433 26.019 91.1233 25.795 91.2833C25.5764 91.4433 25.467 91.6647 25.467 91.9473C25.467 92.2247 25.5737 92.4433 25.787 92.6033C26.0057 92.7633 26.307 92.8433 26.691 92.8433ZM31.9435 96.1233C31.5062 96.1233 31.1142 96.0113 30.7675 95.7873C30.4262 95.5633 30.1542 95.238 29.9515 94.8113C29.7542 94.3847 29.6555 93.8673 29.6555 93.2593C29.6555 92.6513 29.7542 92.134 29.9515 91.7073C30.1542 91.2807 30.4262 90.9553 30.7675 90.7313C31.1142 90.5073 31.5062 90.3953 31.9435 90.3953C32.3755 90.3953 32.7648 90.5073 33.1115 90.7313C33.4582 90.9553 33.7302 91.2807 33.9275 91.7073C34.1248 92.134 34.2235 92.6513 34.2235 93.2593C34.2235 93.8673 34.1248 94.3847 33.9275 94.8113C33.7302 95.238 33.4582 95.5633 33.1115 95.7873C32.7648 96.0113 32.3755 96.1233 31.9435 96.1233ZM31.9435 95.4113C32.2368 95.4113 32.4928 95.3313 32.7115 95.1713C32.9355 95.0113 33.1088 94.7713 33.2315 94.4513C33.3595 94.1313 33.4235 93.734 33.4235 93.2593C33.4235 92.7847 33.3595 92.3873 33.2315 92.0673C33.1088 91.7473 32.9355 91.5073 32.7115 91.3473C32.4928 91.1873 32.2368 91.1073 31.9435 91.1073C31.6502 91.1073 31.3915 91.1873 31.1675 91.3473C30.9435 91.5073 30.7675 91.7473 30.6395 92.0673C30.5168 92.3873 30.4555 92.7847 30.4555 93.2593C30.4555 93.734 30.5168 94.1313 30.6395 94.4513C30.7675 94.7713 30.9435 95.0113 31.1675 95.1713C31.3915 95.3313 31.6502 95.4113 31.9435 95.4113ZM37.2794 96.1233C36.8421 96.1233 36.4501 96.0113 36.1034 95.7873C35.7621 95.5633 35.4901 95.238 35.2874 94.8113C35.0901 94.3847 34.9914 93.8673 34.9914 93.2593C34.9914 92.6513 35.0901 92.134 35.2874 91.7073C35.4901 91.2807 35.7621 90.9553 36.1034 90.7313C36.4501 90.5073 36.8421 90.3953 37.2794 90.3953C37.7114 90.3953 38.1008 90.5073 38.4474 90.7313C38.7941 90.9553 39.0661 91.2807 39.2634 91.7073C39.4608 92.134 39.5594 92.6513 39.5594 93.2593C39.5594 93.8673 39.4608 94.3847 39.2634 94.8113C39.0661 95.238 38.7941 95.5633 38.4474 95.7873C38.1008 96.0113 37.7114 96.1233 37.2794 96.1233ZM37.2794 95.4113C37.5728 95.4113 37.8288 95.3313 38.0474 95.1713C38.2714 95.0113 38.4448 94.7713 38.5674 94.4513C38.6954 94.1313 38.7594 93.734 38.7594 93.2593C38.7594 92.7847 38.6954 92.3873 38.5674 92.0673C38.4448 91.7473 38.2714 91.5073 38.0474 91.3473C37.8288 91.1873 37.5728 91.1073 37.2794 91.1073C36.9861 91.1073 36.7274 91.1873 36.5034 91.3473C36.2794 91.5073 36.1034 91.7473 35.9754 92.0673C35.8528 92.3873 35.7914 92.7847 35.7914 93.2593C35.7914 93.734 35.8528 94.1313 35.9754 94.4513C36.1034 94.7713 36.2794 95.0113 36.5034 95.1713C36.7274 95.3313 36.9861 95.4113 37.2794 95.4113Z" fill="#969696"/>
<path d="M26.859 135.646C26.363 135.646 25.939 135.536 25.587 135.318C25.235 135.099 24.9657 134.784 24.779 134.374C24.5977 133.958 24.507 133.451 24.507 132.854C24.507 132.219 24.619 131.683 24.843 131.246C25.067 130.808 25.379 130.478 25.779 130.254C26.179 130.03 26.6377 129.918 27.155 129.918C27.4217 129.918 27.675 129.944 27.915 129.998C28.1604 130.051 28.371 130.134 28.547 130.246L28.243 130.87C28.099 130.768 27.9337 130.699 27.747 130.662C27.5657 130.624 27.3737 130.606 27.171 130.606C26.6004 130.606 26.147 130.784 25.811 131.142C25.475 131.494 25.307 132.019 25.307 132.718C25.307 132.83 25.3124 132.963 25.323 133.118C25.3337 133.272 25.3604 133.424 25.403 133.574L25.131 133.302C25.211 133.056 25.3364 132.851 25.507 132.686C25.683 132.515 25.891 132.39 26.131 132.31C26.3764 132.224 26.6404 132.182 26.923 132.182C27.2964 132.182 27.627 132.251 27.915 132.39C28.203 132.528 28.4297 132.726 28.595 132.982C28.7604 133.232 28.843 133.531 28.843 133.878C28.843 134.235 28.755 134.547 28.579 134.814C28.403 135.08 28.1657 135.286 27.867 135.43C27.5684 135.574 27.2324 135.646 26.859 135.646ZM26.827 134.998C27.0724 134.998 27.2857 134.952 27.467 134.862C27.6537 134.771 27.8004 134.646 27.907 134.486C28.0137 134.32 28.067 134.128 28.067 133.91C28.067 133.579 27.9524 133.318 27.723 133.126C27.4937 132.928 27.1817 132.83 26.787 132.83C26.531 132.83 26.307 132.878 26.115 132.974C25.923 133.07 25.771 133.2 25.659 133.366C25.5524 133.526 25.499 133.71 25.499 133.918C25.499 134.11 25.5497 134.288 25.651 134.454C25.7524 134.614 25.9017 134.744 26.099 134.846C26.2964 134.947 26.539 134.998 26.827 134.998ZM31.7325 135.646C31.2952 135.646 30.9032 135.534 30.5565 135.31C30.2152 135.086 29.9432 134.76 29.7405 134.334C29.5432 133.907 29.4445 133.39 29.4445 132.782C29.4445 132.174 29.5432 131.656 29.7405 131.23C29.9432 130.803 30.2152 130.478 30.5565 130.254C30.9032 130.03 31.2952 129.918 31.7325 129.918C32.1645 129.918 32.5539 130.03 32.9005 130.254C33.2472 130.478 33.5192 130.803 33.7165 131.23C33.9139 131.656 34.0125 132.174 34.0125 132.782C34.0125 133.39 33.9139 133.907 33.7165 134.334C33.5192 134.76 33.2472 135.086 32.9005 135.31C32.5539 135.534 32.1645 135.646 31.7325 135.646ZM31.7325 134.934C32.0259 134.934 32.2819 134.854 32.5005 134.694C32.7245 134.534 32.8979 134.294 33.0205 133.974C33.1485 133.654 33.2125 133.256 33.2125 132.782C33.2125 132.307 33.1485 131.91 33.0205 131.59C32.8979 131.27 32.7245 131.03 32.5005 130.87C32.2819 130.71 32.0259 130.63 31.7325 130.63C31.4392 130.63 31.1805 130.71 30.9565 130.87C30.7325 131.03 30.5565 131.27 30.4285 131.59C30.3059 131.91 30.2445 132.307 30.2445 132.782C30.2445 133.256 30.3059 133.654 30.4285 133.974C30.5565 134.294 30.7325 134.534 30.9565 134.694C31.1805 134.854 31.4392 134.934 31.7325 134.934ZM37.0685 135.646C36.6312 135.646 36.2392 135.534 35.8925 135.31C35.5512 135.086 35.2792 134.76 35.0765 134.334C34.8792 133.907 34.7805 133.39 34.7805 132.782C34.7805 132.174 34.8792 131.656 35.0765 131.23C35.2792 130.803 35.5512 130.478 35.8925 130.254C36.2392 130.03 36.6312 129.918 37.0685 129.918C37.5005 129.918 37.8898 130.03 38.2365 130.254C38.5832 130.478 38.8552 130.803 39.0525 131.23C39.2498 131.656 39.3485 132.174 39.3485 132.782C39.3485 133.39 39.2498 133.907 39.0525 134.334C38.8552 134.76 38.5832 135.086 38.2365 135.31C37.8898 135.534 37.5005 135.646 37.0685 135.646ZM37.0685 134.934C37.3618 134.934 37.6178 134.854 37.8365 134.694C38.0605 134.534 38.2338 134.294 38.3565 133.974C38.4845 133.654 38.5485 133.256 38.5485 132.782C38.5485 132.307 38.4845 131.91 38.3565 131.59C38.2338 131.27 38.0605 131.03 37.8365 130.87C37.6178 130.71 37.3618 130.63 37.0685 130.63C36.7752 130.63 36.5165 130.71 36.2925 130.87C36.0685 131.03 35.8925 131.27 35.7645 131.59C35.6418 131.91 35.5805 132.307 35.5805 132.782C35.5805 133.256 35.6418 133.654 35.7645 133.974C35.8925 134.294 36.0685 134.534 36.2925 134.694C36.5165 134.854 36.7752 134.934 37.0685 134.934Z" fill="#969696"/>
<path d="M24.427 173.728V173.168L27.291 169.504H28.155L25.315 173.168L24.907 173.04H29.379V173.728H24.427ZM27.539 175.104V173.728L27.563 173.04V171.824H28.315V175.104H27.539ZM32.1466 175.168C31.7093 175.168 31.3173 175.056 30.9706 174.832C30.6293 174.608 30.3573 174.283 30.1546 173.856C29.9573 173.429 29.8586 172.912 29.8586 172.304C29.8586 171.696 29.9573 171.179 30.1546 170.752C30.3573 170.325 30.6293 170 30.9706 169.776C31.3173 169.552 31.7093 169.44 32.1466 169.44C32.5786 169.44 32.9679 169.552 33.3146 169.776C33.6613 170 33.9333 170.325 34.1306 170.752C34.3279 171.179 34.4266 171.696 34.4266 172.304C34.4266 172.912 34.3279 173.429 34.1306 173.856C33.9333 174.283 33.6613 174.608 33.3146 174.832C32.9679 175.056 32.5786 175.168 32.1466 175.168ZM32.1466 174.456C32.4399 174.456 32.6959 174.376 32.9146 174.216C33.1386 174.056 33.3119 173.816 33.4346 173.496C33.5626 173.176 33.6266 172.779 33.6266 172.304C33.6266 171.829 33.5626 171.432 33.4346 171.112C33.3119 170.792 33.1386 170.552 32.9146 170.392C32.6959 170.232 32.4399 170.152 32.1466 170.152C31.8533 170.152 31.5946 170.232 31.3706 170.392C31.1466 170.552 30.9706 170.792 30.8426 171.112C30.7199 171.432 30.6586 171.829 30.6586 172.304C30.6586 172.779 30.7199 173.176 30.8426 173.496C30.9706 173.816 31.1466 174.056 31.3706 174.216C31.5946 174.376 31.8533 174.456 32.1466 174.456ZM37.4825 175.168C37.0452 175.168 36.6532 175.056 36.3065 174.832C35.9652 174.608 35.6932 174.283 35.4905 173.856C35.2932 173.429 35.1945 172.912 35.1945 172.304C35.1945 171.696 35.2932 171.179 35.4905 170.752C35.6932 170.325 35.9652 170 36.3065 169.776C36.6532 169.552 37.0452 169.44 37.4825 169.44C37.9145 169.44 38.3039 169.552 38.6505 169.776C38.9972 170 39.2692 170.325 39.4665 170.752C39.6639 171.179 39.7625 171.696 39.7625 172.304C39.7625 172.912 39.6639 173.429 39.4665 173.856C39.2692 174.283 38.9972 174.608 38.6505 174.832C38.3039 175.056 37.9145 175.168 37.4825 175.168ZM37.4825 174.456C37.7759 174.456 38.0319 174.376 38.2505 174.216C38.4745 174.056 38.6479 173.816 38.7705 173.496C38.8985 173.176 38.9625 172.779 38.9625 172.304C38.9625 171.829 38.8985 171.432 38.7705 171.112C38.6479 170.792 38.4745 170.552 38.2505 170.392C38.0319 170.232 37.7759 170.152 37.4825 170.152C37.1892 170.152 36.9305 170.232 36.7065 170.392C36.4825 170.552 36.3065 170.792 36.1785 171.112C36.0559 171.432 35.9945 171.829 35.9945 172.304C35.9945 172.779 36.0559 173.176 36.1785 173.496C36.3065 173.816 36.4825 174.056 36.7065 174.216C36.9305 174.376 37.1892 174.456 37.4825 174.456Z" fill="#969696"/>
<path d="M24.419 214.626V214.082L26.699 211.882C26.9017 211.69 27.051 211.522 27.147 211.378C27.2484 211.229 27.315 211.093 27.347 210.97C27.3844 210.842 27.403 210.72 27.403 210.602C27.403 210.314 27.3017 210.088 27.099 209.922C26.8964 209.757 26.6004 209.674 26.211 209.674C25.9124 209.674 25.643 209.725 25.403 209.826C25.163 209.922 24.955 210.074 24.779 210.282L24.235 209.81C24.4484 209.538 24.7337 209.33 25.091 209.186C25.4537 209.037 25.851 208.962 26.283 208.962C26.6724 208.962 27.011 209.026 27.299 209.154C27.587 209.277 27.8084 209.456 27.963 209.69C28.123 209.925 28.203 210.202 28.203 210.522C28.203 210.704 28.179 210.882 28.131 211.058C28.083 211.234 27.9924 211.421 27.859 211.618C27.7257 211.816 27.5337 212.037 27.283 212.282L25.251 214.242L25.059 213.93H28.443V214.626H24.419ZM31.381 214.69C30.9437 214.69 30.5517 214.578 30.205 214.354C29.8637 214.13 29.5917 213.805 29.389 213.378C29.1917 212.952 29.093 212.434 29.093 211.826C29.093 211.218 29.1917 210.701 29.389 210.274C29.5917 209.848 29.8637 209.522 30.205 209.298C30.5517 209.074 30.9437 208.962 31.381 208.962C31.813 208.962 32.2023 209.074 32.549 209.298C32.8957 209.522 33.1677 209.848 33.365 210.274C33.5623 210.701 33.661 211.218 33.661 211.826C33.661 212.434 33.5623 212.952 33.365 213.378C33.1677 213.805 32.8957 214.13 32.549 214.354C32.2023 214.578 31.813 214.69 31.381 214.69ZM31.381 213.978C31.6743 213.978 31.9303 213.898 32.149 213.738C32.373 213.578 32.5463 213.338 32.669 213.018C32.797 212.698 32.861 212.301 32.861 211.826C32.861 211.352 32.797 210.954 32.669 210.634C32.5463 210.314 32.373 210.074 32.149 209.914C31.9303 209.754 31.6743 209.674 31.381 209.674C31.0877 209.674 30.829 209.754 30.605 209.914C30.381 210.074 30.205 210.314 30.077 210.634C29.9543 210.954 29.893 211.352 29.893 211.826C29.893 212.301 29.9543 212.698 30.077 213.018C30.205 213.338 30.381 213.578 30.605 213.738C30.829 213.898 31.0877 213.978 31.381 213.978ZM36.7169 214.69C36.2796 214.69 35.8876 214.578 35.5409 214.354C35.1996 214.13 34.9276 213.805 34.7249 213.378C34.5276 212.952 34.4289 212.434 34.4289 211.826C34.4289 211.218 34.5276 210.701 34.7249 210.274C34.9276 209.848 35.1996 209.522 35.5409 209.298C35.8876 209.074 36.2796 208.962 36.7169 208.962C37.1489 208.962 37.5383 209.074 37.8849 209.298C38.2316 209.522 38.5036 209.848 38.7009 210.274C38.8983 210.701 38.9969 211.218 38.9969 211.826C38.9969 212.434 38.8983 212.952 38.7009 213.378C38.5036 213.805 38.2316 214.13 37.8849 214.354C37.5383 214.578 37.1489 214.69 36.7169 214.69ZM36.7169 213.978C37.0103 213.978 37.2663 213.898 37.4849 213.738C37.7089 213.578 37.8823 213.338 38.0049 213.018C38.1329 212.698 38.1969 212.301 38.1969 211.826C38.1969 211.352 38.1329 210.954 38.0049 210.634C37.8823 210.314 37.7089 210.074 37.4849 209.914C37.2663 209.754 37.0103 209.674 36.7169 209.674C36.4236 209.674 36.1649 209.754 35.9409 209.914C35.7169 210.074 35.5409 210.314 35.4129 210.634C35.2903 210.954 35.2289 211.352 35.2289 211.826C35.2289 212.301 35.2903 212.698 35.4129 213.018C35.5409 213.338 35.7169 213.578 35.9409 213.738C36.1649 213.898 36.4236 213.978 36.7169 213.978Z" fill="#969696"/>
<path d="M26.795 254.213C26.3577 254.213 25.9657 254.101 25.619 253.877C25.2777 253.653 25.0057 253.327 24.803 252.901C24.6057 252.474 24.507 251.957 24.507 251.349C24.507 250.741 24.6057 250.223 24.803 249.797C25.0057 249.37 25.2777 249.045 25.619 248.821C25.9657 248.597 26.3577 248.485 26.795 248.485C27.227 248.485 27.6164 248.597 27.963 248.821C28.3097 249.045 28.5817 249.37 28.779 249.797C28.9764 250.223 29.075 250.741 29.075 251.349C29.075 251.957 28.9764 252.474 28.779 252.901C28.5817 253.327 28.3097 253.653 27.963 253.877C27.6164 254.101 27.227 254.213 26.795 254.213ZM26.795 253.501C27.0884 253.501 27.3444 253.421 27.563 253.261C27.787 253.101 27.9604 252.861 28.083 252.541C28.211 252.221 28.275 251.823 28.275 251.349C28.275 250.874 28.211 250.477 28.083 250.157C27.9604 249.837 27.787 249.597 27.563 249.437C27.3444 249.277 27.0884 249.197 26.795 249.197C26.5017 249.197 26.243 249.277 26.019 249.437C25.795 249.597 25.619 249.837 25.491 250.157C25.3684 250.477 25.307 250.874 25.307 251.349C25.307 251.823 25.3684 252.221 25.491 252.541C25.619 252.861 25.795 253.101 26.019 253.261C26.243 253.421 26.5017 253.501 26.795 253.501Z" fill="#969696"/>
</g>
</g>
<defs>
<filter id="filter0_b_2777_51427" x="-8" y="-8" width="618" height="298" filterUnits="userSpaceOnUse" color-interpolation-filters="sRGB">
<feFlood flood-opacity="0" result="BackgroundImageFix"/>
<feGaussianBlur in="BackgroundImageFix" stdDeviation="4"/>
<feComposite in2="SourceAlpha" operator="in" result="effect1_backgroundBlur_2777_51427"/>
<feBlend mode="normal" in="SourceGraphic" in2="effect1_backgroundBlur_2777_51427" result="shape"/>
</filter>
<clipPath id="clip0_2777_51427">
<path d="M16 21.6233C16 18.5176 18.5176 16 21.6233 16H579.377C582.482 16 585 18.5176 585 21.6233V259.911C585 263.016 582.482 265.534 579.377 265.534H21.6233C18.5176 265.534 16 263.016 16 259.911V21.6233Z" fill="white"/>
</clipPath>
<clipPath id="clip1_2777_51427">
<rect width="570" height="181" fill="white" transform="translate(16 84.9998)"/>
</clipPath>
<clipPath id="clip2_2777_51427">
<rect width="17" height="168.089" fill="white" transform="translate(24.123 88.0593)"/>
</clipPath>
</defs>
</svg>
