<svg width="602" height="282" viewBox="0 0 602 282" fill="none" xmlns="http://www.w3.org/2000/svg">
<g filter="url(#filter0_b_2777_51428)">
<path d="M0 7.99999C0 3.58172 3.58172 0 8 0H594C598.418 0 602 3.58172 602 8V274C602 278.418 598.418 282 594 282H8C3.58172 282 0 278.418 0 274V7.99999Z" fill="#F4F2FF"/>
<path d="M0.75 7.99999C0.75 3.99593 3.99593 0.75 8 0.75H594C598.004 0.75 601.25 3.99594 601.25 8V274C601.25 278.004 598.004 281.25 594 281.25H8C3.99593 281.25 0.75 278.004 0.75 274V7.99999Z" stroke="#7932FF" stroke-width="1.5"/>
<path d="M20.144 39L16.432 27.8H18.592L21.904 37.928H20.832L24.272 27.8H26.192L29.536 37.928H28.496L31.888 27.8H33.872L30.16 39H27.952L24.896 29.864H25.472L22.368 39H20.144ZM39.9979 39V37.272L39.8859 36.904V33.88C39.8859 33.2933 39.7099 32.84 39.3579 32.52C39.0059 32.1893 38.4725 32.024 37.7579 32.024C37.2779 32.024 36.8032 32.0987 36.3339 32.248C35.8752 32.3973 35.4859 32.6053 35.1659 32.872L34.3819 31.416C34.8405 31.064 35.3845 30.8027 36.0139 30.632C36.6539 30.4507 37.3152 30.36 37.9979 30.36C39.2352 30.36 40.1899 30.6587 40.8619 31.256C41.5445 31.8427 41.8859 32.7547 41.8859 33.992V39H39.9979ZM37.3099 39.112C36.6699 39.112 36.1099 39.0053 35.6299 38.792C35.1499 38.568 34.7765 38.264 34.5099 37.88C34.2539 37.4853 34.1259 37.0427 34.1259 36.552C34.1259 36.072 34.2379 35.64 34.4619 35.256C34.6965 34.872 35.0752 34.568 35.5979 34.344C36.1205 34.12 36.8139 34.008 37.6779 34.008H40.1579V35.336H37.8219C37.1392 35.336 36.6805 35.448 36.4459 35.672C36.2112 35.8853 36.0939 36.152 36.0939 36.472C36.0939 36.8347 36.2379 37.1227 36.5259 37.336C36.8139 37.5493 37.2139 37.656 37.7259 37.656C38.2165 37.656 38.6539 37.544 39.0379 37.32C39.4325 37.096 39.7152 36.7653 39.8859 36.328L40.2219 37.528C40.0299 38.0293 39.6832 38.4187 39.1819 38.696C38.6912 38.9733 38.0672 39.112 37.3099 39.112ZM47.6686 39.112C46.73 39.112 46.0046 38.872 45.4926 38.392C44.9806 37.9013 44.7246 37.1813 44.7246 36.232V28.568H46.7246V36.184C46.7246 36.5893 46.826 36.904 47.0286 37.128C47.242 37.352 47.5353 37.464 47.9086 37.464C48.3566 37.464 48.73 37.3467 49.0286 37.112L49.5886 38.536C49.354 38.728 49.066 38.872 48.7246 38.968C48.3833 39.064 48.0313 39.112 47.6686 39.112ZM43.3166 32.12V30.52H49.0126V32.12H43.3166ZM54.9686 39.112C54.0193 39.112 53.1873 38.9253 52.4726 38.552C51.7686 38.168 51.2193 37.6453 50.8246 36.984C50.4406 36.3227 50.2486 35.5707 50.2486 34.728C50.2486 33.8747 50.4353 33.1227 50.8086 32.472C51.1926 31.8107 51.7153 31.2933 52.3766 30.92C53.0486 30.5467 53.8113 30.36 54.6646 30.36C55.4966 30.36 56.238 30.5413 56.8886 30.904C57.5393 31.2667 58.0513 31.7787 58.4246 32.44C58.798 33.1013 58.9846 33.88 58.9846 34.776C58.9846 34.8613 58.9793 34.9573 58.9686 35.064C58.9686 35.1707 58.9633 35.272 58.9526 35.368H51.8326V34.04H57.8966L57.1126 34.456C57.1233 33.9653 57.022 33.5333 56.8086 33.16C56.5953 32.7867 56.302 32.4933 55.9286 32.28C55.566 32.0667 55.1446 31.96 54.6646 31.96C54.174 31.96 53.742 32.0667 53.3686 32.28C53.006 32.4933 52.718 32.792 52.5046 33.176C52.302 33.5493 52.2006 33.992 52.2006 34.504V34.824C52.2006 35.336 52.318 35.7893 52.5526 36.184C52.7873 36.5787 53.118 36.8827 53.5446 37.096C53.9713 37.3093 54.462 37.416 55.0166 37.416C55.4966 37.416 55.9286 37.3413 56.3126 37.192C56.6966 37.0427 57.038 36.808 57.3366 36.488L58.4086 37.72C58.0246 38.168 57.5393 38.5147 56.9526 38.76C56.3766 38.9947 55.7153 39.112 54.9686 39.112ZM60.9058 39V30.456H62.8098V32.808L62.5858 32.12C62.8418 31.544 63.2418 31.1067 63.7858 30.808C64.3404 30.5093 65.0284 30.36 65.8498 30.36V32.264C65.7644 32.2427 65.6844 32.232 65.6098 32.232C65.5351 32.2213 65.4604 32.216 65.3858 32.216C64.6284 32.216 64.0258 32.44 63.5778 32.888C63.1298 33.3253 62.9058 33.9813 62.9058 34.856V39H60.9058ZM77.4224 39.16C76.569 39.16 75.7744 39.0213 75.0384 38.744C74.313 38.456 73.6784 38.056 73.1344 37.544C72.601 37.0213 72.185 36.408 71.8864 35.704C71.5877 35 71.4384 34.232 71.4384 33.4C71.4384 32.568 71.5877 31.8 71.8864 31.096C72.185 30.392 72.6064 29.784 73.1504 29.272C73.6944 28.7493 74.329 28.3493 75.0544 28.072C75.7797 27.784 76.5744 27.64 77.4384 27.64C78.3557 27.64 79.193 27.8 79.9504 28.12C80.7077 28.4293 81.3477 28.8933 81.8704 29.512L80.5264 30.776C80.121 30.3387 79.6677 30.0133 79.1664 29.8C78.665 29.576 78.121 29.464 77.5344 29.464C76.9477 29.464 76.409 29.56 75.9184 29.752C75.4384 29.944 75.017 30.216 74.6544 30.568C74.3024 30.92 74.025 31.336 73.8224 31.816C73.6304 32.296 73.5344 32.824 73.5344 33.4C73.5344 33.976 73.6304 34.504 73.8224 34.984C74.025 35.464 74.3024 35.88 74.6544 36.232C75.017 36.584 75.4384 36.856 75.9184 37.048C76.409 37.24 76.9477 37.336 77.5344 37.336C78.121 37.336 78.665 37.2293 79.1664 37.016C79.6677 36.792 80.121 36.456 80.5264 36.008L81.8704 37.288C81.3477 37.896 80.7077 38.36 79.9504 38.68C79.193 39 78.3504 39.16 77.4224 39.16ZM87.1833 39.112C86.3086 39.112 85.5299 38.9253 84.8473 38.552C84.1646 38.168 83.6259 37.6453 83.2313 36.984C82.8366 36.3227 82.6393 35.5707 82.6393 34.728C82.6393 33.8747 82.8366 33.1227 83.2313 32.472C83.6259 31.8107 84.1646 31.2933 84.8473 30.92C85.5299 30.5467 86.3086 30.36 87.1833 30.36C88.0686 30.36 88.8526 30.5467 89.5353 30.92C90.2286 31.2933 90.7673 31.8053 91.1513 32.456C91.5459 33.1067 91.7433 33.864 91.7433 34.728C91.7433 35.5707 91.5459 36.3227 91.1513 36.984C90.7673 37.6453 90.2286 38.168 89.5353 38.552C88.8526 38.9253 88.0686 39.112 87.1833 39.112ZM87.1833 37.4C87.6739 37.4 88.1113 37.2933 88.4953 37.08C88.8793 36.8667 89.1779 36.5573 89.3913 36.152C89.6153 35.7467 89.7273 35.272 89.7273 34.728C89.7273 34.1733 89.6153 33.6987 89.3913 33.304C89.1779 32.8987 88.8793 32.5893 88.4953 32.376C88.1113 32.1627 87.6793 32.056 87.1993 32.056C86.7086 32.056 86.2713 32.1627 85.8873 32.376C85.5139 32.5893 85.2153 32.8987 84.9913 33.304C84.7673 33.6987 84.6553 34.1733 84.6553 34.728C84.6553 35.272 84.7673 35.7467 84.9913 36.152C85.2153 36.5573 85.5139 36.8667 85.8873 37.08C86.2713 37.2933 86.7033 37.4 87.1833 37.4ZM98.5038 30.36C99.1864 30.36 99.7944 30.4933 100.328 30.76C100.872 31.0267 101.298 31.4373 101.608 31.992C101.917 32.536 102.072 33.24 102.072 34.104V39H100.072V34.36C100.072 33.6027 99.8904 33.0373 99.5278 32.664C99.1758 32.2907 98.6798 32.104 98.0398 32.104C97.5704 32.104 97.1544 32.2 96.7918 32.392C96.4291 32.584 96.1464 32.872 95.9438 33.256C95.7518 33.6293 95.6558 34.104 95.6558 34.68V39H93.6558V30.456H95.5598V32.76L95.2238 32.056C95.5224 31.512 95.9544 31.096 96.5198 30.808C97.0958 30.5093 97.7571 30.36 98.5038 30.36ZM107.249 39.112C106.534 39.112 105.846 39.0213 105.185 38.84C104.534 38.648 104.017 38.4187 103.633 38.152L104.401 36.632C104.785 36.8773 105.244 37.08 105.777 37.24C106.31 37.4 106.844 37.48 107.377 37.48C108.006 37.48 108.46 37.3947 108.737 37.224C109.025 37.0533 109.169 36.824 109.169 36.536C109.169 36.3013 109.073 36.1253 108.881 36.008C108.689 35.88 108.438 35.784 108.129 35.72C107.82 35.656 107.473 35.5973 107.089 35.544C106.716 35.4907 106.337 35.4213 105.953 35.336C105.58 35.24 105.238 35.1067 104.929 34.936C104.62 34.7547 104.369 34.5147 104.177 34.216C103.985 33.9173 103.889 33.5227 103.889 33.032C103.889 32.488 104.044 32.0187 104.353 31.624C104.662 31.2187 105.094 30.9093 105.649 30.696C106.214 30.472 106.881 30.36 107.649 30.36C108.225 30.36 108.806 30.424 109.393 30.552C109.98 30.68 110.465 30.8613 110.849 31.096L110.081 32.616C109.676 32.3707 109.265 32.2053 108.849 32.12C108.444 32.024 108.038 31.976 107.633 31.976C107.025 31.976 106.572 32.0667 106.273 32.248C105.985 32.4293 105.841 32.6587 105.841 32.936C105.841 33.192 105.937 33.384 106.129 33.512C106.321 33.64 106.572 33.7413 106.881 33.816C107.19 33.8907 107.532 33.9547 107.905 34.008C108.289 34.0507 108.668 34.12 109.041 34.216C109.414 34.312 109.756 34.4453 110.065 34.616C110.385 34.776 110.641 35.0053 110.833 35.304C111.025 35.6027 111.121 35.992 111.121 36.472C111.121 37.0053 110.961 37.4693 110.641 37.864C110.332 38.2587 109.889 38.568 109.313 38.792C108.737 39.0053 108.049 39.112 107.249 39.112ZM116.459 39.112C115.734 39.112 115.094 38.9787 114.539 38.712C113.985 38.4347 113.553 38.0187 113.243 37.464C112.934 36.8987 112.779 36.1893 112.779 35.336V30.456H114.779V35.064C114.779 35.832 114.95 36.408 115.291 36.792C115.643 37.1653 116.139 37.352 116.779 37.352C117.249 37.352 117.654 37.256 117.995 37.064C118.347 36.872 118.619 36.584 118.811 36.2C119.014 35.816 119.115 35.3413 119.115 34.776V30.456H121.115V39H119.211V36.696L119.547 37.4C119.259 37.9547 118.838 38.3813 118.283 38.68C117.729 38.968 117.121 39.112 116.459 39.112ZM134.518 30.36C135.201 30.36 135.803 30.4933 136.326 30.76C136.859 31.0267 137.275 31.4373 137.574 31.992C137.873 32.536 138.022 33.24 138.022 34.104V39H136.022V34.36C136.022 33.6027 135.857 33.0373 135.526 32.664C135.195 32.2907 134.721 32.104 134.102 32.104C133.665 32.104 133.275 32.2 132.934 32.392C132.603 32.584 132.342 32.8667 132.15 33.24C131.969 33.6133 131.878 34.088 131.878 34.664V39H129.878V34.36C129.878 33.6027 129.713 33.0373 129.382 32.664C129.051 32.2907 128.577 32.104 127.958 32.104C127.521 32.104 127.131 32.2 126.79 32.392C126.459 32.584 126.198 32.8667 126.006 33.24C125.825 33.6133 125.734 34.088 125.734 34.664V39H123.734V30.456H125.638V32.728L125.302 32.056C125.59 31.5013 126.006 31.08 126.55 30.792C127.105 30.504 127.734 30.36 128.438 30.36C129.238 30.36 129.931 30.5573 130.518 30.952C131.115 31.3467 131.51 31.944 131.702 32.744L130.918 32.472C131.195 31.832 131.654 31.32 132.294 30.936C132.934 30.552 133.675 30.36 134.518 30.36ZM145.314 39.112C144.62 39.112 143.986 38.952 143.41 38.632C142.844 38.312 142.391 37.832 142.05 37.192C141.719 36.5413 141.554 35.72 141.554 34.728C141.554 33.7253 141.714 32.904 142.034 32.264C142.364 31.624 142.812 31.1493 143.378 30.84C143.943 30.52 144.588 30.36 145.314 30.36C146.156 30.36 146.898 30.5413 147.538 30.904C148.188 31.2667 148.7 31.7733 149.074 32.424C149.458 33.0747 149.65 33.8427 149.65 34.728C149.65 35.6133 149.458 36.3867 149.074 37.048C148.7 37.6987 148.188 38.2053 147.538 38.568C146.898 38.9307 146.156 39.112 145.314 39.112ZM140.578 42.104V30.456H142.482V32.472L142.418 34.744L142.578 37.016V42.104H140.578ZM145.09 37.4C145.57 37.4 145.996 37.2933 146.37 37.08C146.754 36.8667 147.058 36.5573 147.282 36.152C147.506 35.7467 147.618 35.272 147.618 34.728C147.618 34.1733 147.506 33.6987 147.282 33.304C147.058 32.8987 146.754 32.5893 146.37 32.376C145.996 32.1627 145.57 32.056 145.09 32.056C144.61 32.056 144.178 32.1627 143.794 32.376C143.41 32.5893 143.106 32.8987 142.882 33.304C142.658 33.6987 142.546 34.1733 142.546 34.728C142.546 35.272 142.658 35.7467 142.882 36.152C143.106 36.5573 143.41 36.8667 143.794 37.08C144.178 37.2933 144.61 37.4 145.09 37.4ZM154.762 39.112C153.824 39.112 153.098 38.872 152.586 38.392C152.074 37.9013 151.818 37.1813 151.818 36.232V28.568H153.818V36.184C153.818 36.5893 153.92 36.904 154.122 37.128C154.336 37.352 154.629 37.464 155.002 37.464C155.45 37.464 155.824 37.3467 156.122 37.112L156.682 38.536C156.448 38.728 156.16 38.872 155.818 38.968C155.477 39.064 155.125 39.112 154.762 39.112ZM150.41 32.12V30.52H156.106V32.12H150.41ZM158.328 39V30.456H160.328V39H158.328ZM159.336 29.048C158.962 29.048 158.653 28.9307 158.408 28.696C158.173 28.4613 158.056 28.1787 158.056 27.848C158.056 27.5067 158.173 27.224 158.408 27C158.653 26.7653 158.962 26.648 159.336 26.648C159.709 26.648 160.013 26.76 160.248 26.984C160.493 27.1973 160.616 27.4693 160.616 27.8C160.616 28.152 160.498 28.4507 160.264 28.696C160.029 28.9307 159.72 29.048 159.336 29.048ZM166.793 39.112C165.918 39.112 165.139 38.9253 164.457 38.552C163.774 38.168 163.235 37.6453 162.841 36.984C162.446 36.3227 162.249 35.5707 162.249 34.728C162.249 33.8747 162.446 33.1227 162.841 32.472C163.235 31.8107 163.774 31.2933 164.457 30.92C165.139 30.5467 165.918 30.36 166.793 30.36C167.678 30.36 168.462 30.5467 169.145 30.92C169.838 31.2933 170.377 31.8053 170.761 32.456C171.155 33.1067 171.353 33.864 171.353 34.728C171.353 35.5707 171.155 36.3227 170.761 36.984C170.377 37.6453 169.838 38.168 169.145 38.552C168.462 38.9253 167.678 39.112 166.793 39.112ZM166.793 37.4C167.283 37.4 167.721 37.2933 168.105 37.08C168.489 36.8667 168.787 36.5573 169.001 36.152C169.225 35.7467 169.337 35.272 169.337 34.728C169.337 34.1733 169.225 33.6987 169.001 33.304C168.787 32.8987 168.489 32.5893 168.105 32.376C167.721 32.1627 167.289 32.056 166.809 32.056C166.318 32.056 165.881 32.1627 165.497 32.376C165.123 32.5893 164.825 32.8987 164.601 33.304C164.377 33.6987 164.265 34.1733 164.265 34.728C164.265 35.272 164.377 35.7467 164.601 36.152C164.825 36.5573 165.123 36.8667 165.497 37.08C165.881 37.2933 166.313 37.4 166.793 37.4ZM178.113 30.36C178.796 30.36 179.404 30.4933 179.937 30.76C180.481 31.0267 180.908 31.4373 181.217 31.992C181.526 32.536 181.681 33.24 181.681 34.104V39H179.681V34.36C179.681 33.6027 179.5 33.0373 179.137 32.664C178.785 32.2907 178.289 32.104 177.649 32.104C177.18 32.104 176.764 32.2 176.401 32.392C176.038 32.584 175.756 32.872 175.553 33.256C175.361 33.6293 175.265 34.104 175.265 34.68V39H173.265V30.456H175.169V32.76L174.833 32.056C175.132 31.512 175.564 31.096 176.129 30.808C176.705 30.5093 177.366 30.36 178.113 30.36Z" fill="#080708"/>
<path d="M554 25C554 20.5817 557.582 17 562 17H578C582.418 17 586 20.5817 586 25V41C586 45.4183 582.418 49 578 49H562C557.582 49 554 45.4183 554 41V25Z" fill="#4E4C4F" fill-opacity="0.1"/>
<path d="M573.693 30.8734C574.783 30.8734 575.666 29.9899 575.666 28.9001C575.666 27.8102 574.783 26.9268 573.693 26.9268C572.603 26.9268 571.72 27.8102 571.72 28.9001C571.72 29.9899 572.603 30.8734 573.693 30.8734Z" fill="#080708"/>
<path d="M566.306 30.8734C567.396 30.8734 568.28 29.9899 568.28 28.9001C568.28 27.8102 567.396 26.9268 566.306 26.9268C565.216 26.9268 564.333 27.8102 564.333 28.9001C564.333 29.9899 565.216 30.8734 566.306 30.8734Z" fill="#080708"/>
<path d="M573.693 39.0734C574.783 39.0734 575.666 38.1899 575.666 37.1C575.666 36.0102 574.783 35.1267 573.693 35.1267C572.603 35.1267 571.72 36.0102 571.72 37.1C571.72 38.1899 572.603 39.0734 573.693 39.0734Z" fill="#080708"/>
<path d="M566.306 39.0734C567.396 39.0734 568.28 38.1899 568.28 37.1C568.28 36.0102 567.396 35.1267 566.306 35.1267C565.216 35.1267 564.333 36.0102 564.333 37.1C564.333 38.1899 565.216 39.0734 566.306 39.0734Z" fill="#080708"/>
<g clip-path="url(#clip0_2777_51428)">
<path fill-rule="evenodd" clip-rule="evenodd" d="M584.021 266H16V256.612C18.8602 256.246 42.0076 233.673 68.9417 233.015C93.3376 232.419 123.463 249.272 160.046 248.569C188.8 248.016 218.832 234.58 251.15 234.03C283.106 233.486 310.208 246.566 342.253 246.084C373.689 245.611 405.054 233.372 433.357 233.015C470.094 232.552 502.479 243.592 527.77 243.432C560.641 243.224 584.021 252.17 584.021 252.71C584.021 255.526 584.021 258.893 584.021 266Z" fill="#79B473" fill-opacity="0.2"/>
</g>
<path d="M16.499 249.423H22.1222" stroke="#ABADB1" stroke-width="0.44182"/>
<path d="M16.499 212.469H22.1222" stroke="#ABADB1" stroke-width="0.44182"/>
<path d="M16.499 173.81H22.1222" stroke="#ABADB1" stroke-width="0.44182"/>
<path d="M16.499 135.152H22.1222" stroke="#ABADB1" stroke-width="0.44182"/>
<path d="M16.499 94.7837H22.1222" stroke="#ABADB1" stroke-width="0.44182"/>
<g clip-path="url(#clip1_2777_51428)">
<path d="M25.451 96.0593V90.7793L25.795 91.1553H24.187V90.4593H26.243V96.0593H25.451ZM28.412 96.0593V90.7793L28.756 91.1553H27.148V90.4593H29.204V96.0593H28.412ZM32.7169 96.1233C32.2796 96.1233 31.8876 96.0113 31.5409 95.7873C31.1996 95.5633 30.9276 95.238 30.7249 94.8113C30.5276 94.3847 30.4289 93.8673 30.4289 93.2593C30.4289 92.6513 30.5276 92.134 30.7249 91.7073C30.9276 91.2807 31.1996 90.9553 31.5409 90.7313C31.8876 90.5073 32.2796 90.3953 32.7169 90.3953C33.1489 90.3953 33.5383 90.5073 33.8849 90.7313C34.2316 90.9553 34.5036 91.2807 34.7009 91.7073C34.8983 92.134 34.9969 92.6513 34.9969 93.2593C34.9969 93.8673 34.8983 94.3847 34.7009 94.8113C34.5036 95.238 34.2316 95.5633 33.8849 95.7873C33.5383 96.0113 33.1489 96.1233 32.7169 96.1233ZM32.7169 95.4113C33.0103 95.4113 33.2663 95.3313 33.4849 95.1713C33.7089 95.0113 33.8823 94.7713 34.0049 94.4513C34.1329 94.1313 34.1969 93.734 34.1969 93.2593C34.1969 92.7847 34.1329 92.3873 34.0049 92.0673C33.8823 91.7473 33.7089 91.5073 33.4849 91.3473C33.2663 91.1873 33.0103 91.1073 32.7169 91.1073C32.4236 91.1073 32.1649 91.1873 31.9409 91.3473C31.7169 91.5073 31.5409 91.7473 31.4129 92.0673C31.2903 92.3873 31.2289 92.7847 31.2289 93.2593C31.2289 93.734 31.2903 94.1313 31.4129 94.4513C31.5409 94.7713 31.7169 95.0113 31.9409 95.1713C32.1649 95.3313 32.4236 95.4113 32.7169 95.4113Z" fill="#969696"/>
<path d="M26.323 129.918C26.8297 129.918 27.2564 130.027 27.603 130.246C27.955 130.464 28.2217 130.782 28.403 131.198C28.5844 131.608 28.675 132.112 28.675 132.71C28.675 133.344 28.563 133.88 28.339 134.318C28.115 134.755 27.8057 135.086 27.411 135.31C27.0164 135.534 26.555 135.646 26.027 135.646C25.7657 135.646 25.5124 135.619 25.267 135.566C25.027 135.512 24.8164 135.43 24.635 135.318L24.939 134.694C25.0884 134.79 25.2537 134.859 25.435 134.902C25.6217 134.939 25.8164 134.958 26.019 134.958C26.5844 134.958 27.035 134.782 27.371 134.43C27.707 134.072 27.875 133.544 27.875 132.846C27.875 132.734 27.8697 132.6 27.859 132.446C27.8484 132.291 27.8244 132.139 27.787 131.99L28.051 132.262C27.9764 132.507 27.851 132.715 27.675 132.886C27.5044 133.051 27.2964 133.176 27.051 133.262C26.811 133.342 26.547 133.382 26.259 133.382C25.891 133.382 25.563 133.312 25.275 133.174C24.987 133.035 24.7604 132.84 24.595 132.59C24.4297 132.334 24.347 132.032 24.347 131.686C24.347 131.323 24.4324 131.011 24.603 130.75C24.779 130.483 25.0164 130.278 25.315 130.134C25.619 129.99 25.955 129.918 26.323 129.918ZM26.355 130.566C26.115 130.566 25.9017 130.611 25.715 130.702C25.5284 130.792 25.3817 130.918 25.275 131.078C25.1737 131.238 25.123 131.43 25.123 131.654C25.123 131.984 25.2377 132.248 25.467 132.446C25.6964 132.638 26.0057 132.734 26.395 132.734C26.651 132.734 26.875 132.686 27.067 132.59C27.2644 132.494 27.4164 132.363 27.523 132.198C27.635 132.032 27.691 131.848 27.691 131.646C27.691 131.448 27.6404 131.27 27.539 131.11C27.4377 130.95 27.2884 130.819 27.091 130.718C26.8937 130.616 26.6484 130.566 26.355 130.566ZM31.7325 135.646C31.2952 135.646 30.9032 135.534 30.5565 135.31C30.2152 135.086 29.9432 134.76 29.7405 134.334C29.5432 133.907 29.4445 133.39 29.4445 132.782C29.4445 132.174 29.5432 131.656 29.7405 131.23C29.9432 130.803 30.2152 130.478 30.5565 130.254C30.9032 130.03 31.2952 129.918 31.7325 129.918C32.1645 129.918 32.5539 130.03 32.9005 130.254C33.2472 130.478 33.5192 130.803 33.7165 131.23C33.9139 131.656 34.0125 132.174 34.0125 132.782C34.0125 133.39 33.9139 133.907 33.7165 134.334C33.5192 134.76 33.2472 135.086 32.9005 135.31C32.5539 135.534 32.1645 135.646 31.7325 135.646ZM31.7325 134.934C32.0259 134.934 32.2819 134.854 32.5005 134.694C32.7245 134.534 32.8979 134.294 33.0205 133.974C33.1485 133.654 33.2125 133.256 33.2125 132.782C33.2125 132.307 33.1485 131.91 33.0205 131.59C32.8979 131.27 32.7245 131.03 32.5005 130.87C32.2819 130.71 32.0259 130.63 31.7325 130.63C31.4392 130.63 31.1805 130.71 30.9565 130.87C30.7325 131.03 30.5565 131.27 30.4285 131.59C30.3059 131.91 30.2445 132.307 30.2445 132.782C30.2445 133.256 30.3059 133.654 30.4285 133.974C30.5565 134.294 30.7325 134.534 30.9565 134.694C31.1805 134.854 31.4392 134.934 31.7325 134.934Z" fill="#969696"/>
<path d="M26.859 175.168C26.363 175.168 25.939 175.059 25.587 174.84C25.235 174.621 24.9657 174.307 24.779 173.896C24.5977 173.48 24.507 172.973 24.507 172.376C24.507 171.741 24.619 171.205 24.843 170.768C25.067 170.331 25.379 170 25.779 169.776C26.179 169.552 26.6377 169.44 27.155 169.44C27.4217 169.44 27.675 169.467 27.915 169.52C28.1604 169.573 28.371 169.656 28.547 169.768L28.243 170.392C28.099 170.291 27.9337 170.221 27.747 170.184C27.5657 170.147 27.3737 170.128 27.171 170.128C26.6004 170.128 26.147 170.307 25.811 170.664C25.475 171.016 25.307 171.541 25.307 172.24C25.307 172.352 25.3124 172.485 25.323 172.64C25.3337 172.795 25.3604 172.947 25.403 173.096L25.131 172.824C25.211 172.579 25.3364 172.373 25.507 172.208C25.683 172.037 25.891 171.912 26.131 171.832C26.3764 171.747 26.6404 171.704 26.923 171.704C27.2964 171.704 27.627 171.773 27.915 171.912C28.203 172.051 28.4297 172.248 28.595 172.504C28.7604 172.755 28.843 173.053 28.843 173.4C28.843 173.757 28.755 174.069 28.579 174.336C28.403 174.603 28.1657 174.808 27.867 174.952C27.5684 175.096 27.2324 175.168 26.859 175.168ZM26.827 174.52C27.0724 174.52 27.2857 174.475 27.467 174.384C27.6537 174.293 27.8004 174.168 27.907 174.008C28.0137 173.843 28.067 173.651 28.067 173.432C28.067 173.101 27.9524 172.84 27.723 172.648C27.4937 172.451 27.1817 172.352 26.787 172.352C26.531 172.352 26.307 172.4 26.115 172.496C25.923 172.592 25.771 172.723 25.659 172.888C25.5524 173.048 25.499 173.232 25.499 173.44C25.499 173.632 25.5497 173.811 25.651 173.976C25.7524 174.136 25.9017 174.267 26.099 174.368C26.2964 174.469 26.539 174.52 26.827 174.52ZM31.7325 175.168C31.2952 175.168 30.9032 175.056 30.5565 174.832C30.2152 174.608 29.9432 174.283 29.7405 173.856C29.5432 173.429 29.4445 172.912 29.4445 172.304C29.4445 171.696 29.5432 171.179 29.7405 170.752C29.9432 170.325 30.2152 170 30.5565 169.776C30.9032 169.552 31.2952 169.44 31.7325 169.44C32.1645 169.44 32.5539 169.552 32.9005 169.776C33.2472 170 33.5192 170.325 33.7165 170.752C33.9139 171.179 34.0125 171.696 34.0125 172.304C34.0125 172.912 33.9139 173.429 33.7165 173.856C33.5192 174.283 33.2472 174.608 32.9005 174.832C32.5539 175.056 32.1645 175.168 31.7325 175.168ZM31.7325 174.456C32.0259 174.456 32.2819 174.376 32.5005 174.216C32.7245 174.056 32.8979 173.816 33.0205 173.496C33.1485 173.176 33.2125 172.779 33.2125 172.304C33.2125 171.829 33.1485 171.432 33.0205 171.112C32.8979 170.792 32.7245 170.552 32.5005 170.392C32.2819 170.232 32.0259 170.152 31.7325 170.152C31.4392 170.152 31.1805 170.232 30.9565 170.392C30.7325 170.552 30.5565 170.792 30.4285 171.112C30.3059 171.432 30.2445 171.829 30.2445 172.304C30.2445 172.779 30.3059 173.176 30.4285 173.496C30.5565 173.816 30.7325 174.056 30.9565 174.216C31.1805 174.376 31.4392 174.456 31.7325 174.456Z" fill="#969696"/>
<path d="M26.219 214.69C25.8244 214.69 25.4404 214.629 25.067 214.506C24.699 214.384 24.3977 214.218 24.163 214.01L24.531 213.378C24.7177 213.554 24.9604 213.698 25.259 213.81C25.5577 213.922 25.8777 213.978 26.219 213.978C26.635 213.978 26.9577 213.89 27.187 213.714C27.4217 213.533 27.539 213.29 27.539 212.986C27.539 212.693 27.427 212.458 27.203 212.282C26.9844 212.101 26.635 212.01 26.155 212.01H25.707V211.45L27.371 209.402L27.483 209.722H24.419V209.026H28.115V209.57L26.459 211.61L26.043 211.362H26.307C26.9844 211.362 27.491 211.514 27.827 211.818C28.1684 212.122 28.339 212.509 28.339 212.978C28.339 213.293 28.2617 213.581 28.107 213.842C27.9524 214.104 27.7177 214.312 27.403 214.466C27.0937 214.616 26.699 214.69 26.219 214.69ZM31.3732 214.69C30.9358 214.69 30.5438 214.578 30.1972 214.354C29.8558 214.13 29.5838 213.805 29.3812 213.378C29.1838 212.952 29.0852 212.434 29.0852 211.826C29.0852 211.218 29.1838 210.701 29.3812 210.274C29.5838 209.848 29.8558 209.522 30.1972 209.298C30.5438 209.074 30.9358 208.962 31.3732 208.962C31.8052 208.962 32.1945 209.074 32.5412 209.298C32.8878 209.522 33.1598 209.848 33.3572 210.274C33.5545 210.701 33.6532 211.218 33.6532 211.826C33.6532 212.434 33.5545 212.952 33.3572 213.378C33.1598 213.805 32.8878 214.13 32.5412 214.354C32.1945 214.578 31.8052 214.69 31.3732 214.69ZM31.3732 213.978C31.6665 213.978 31.9225 213.898 32.1412 213.738C32.3652 213.578 32.5385 213.338 32.6612 213.018C32.7892 212.698 32.8532 212.301 32.8532 211.826C32.8532 211.352 32.7892 210.954 32.6612 210.634C32.5385 210.314 32.3652 210.074 32.1412 209.914C31.9225 209.754 31.6665 209.674 31.3732 209.674C31.0798 209.674 30.8212 209.754 30.5972 209.914C30.3732 210.074 30.1972 210.314 30.0692 210.634C29.9465 210.954 29.8852 211.352 29.8852 211.826C29.8852 212.301 29.9465 212.698 30.0692 213.018C30.1972 213.338 30.3732 213.578 30.5972 213.738C30.8212 213.898 31.0798 213.978 31.3732 213.978Z" fill="#969696"/>
<path d="M26.795 254.213C26.3577 254.213 25.9657 254.101 25.619 253.877C25.2777 253.653 25.0057 253.327 24.803 252.901C24.6057 252.474 24.507 251.957 24.507 251.349C24.507 250.741 24.6057 250.223 24.803 249.797C25.0057 249.37 25.2777 249.045 25.619 248.821C25.9657 248.597 26.3577 248.485 26.795 248.485C27.227 248.485 27.6164 248.597 27.963 248.821C28.3097 249.045 28.5817 249.37 28.779 249.797C28.9764 250.223 29.075 250.741 29.075 251.349C29.075 251.957 28.9764 252.474 28.779 252.901C28.5817 253.327 28.3097 253.653 27.963 253.877C27.6164 254.101 27.227 254.213 26.795 254.213ZM26.795 253.501C27.0884 253.501 27.3444 253.421 27.563 253.261C27.787 253.101 27.9604 252.861 28.083 252.541C28.211 252.221 28.275 251.823 28.275 251.349C28.275 250.874 28.211 250.477 28.083 250.157C27.9604 249.837 27.787 249.597 27.563 249.437C27.3444 249.277 27.0884 249.197 26.795 249.197C26.5017 249.197 26.243 249.277 26.019 249.437C25.795 249.597 25.619 249.837 25.491 250.157C25.3684 250.477 25.307 250.874 25.307 251.349C25.307 251.823 25.3684 252.221 25.491 252.541C25.619 252.861 25.795 253.101 26.019 253.261C26.243 253.421 26.5017 253.501 26.795 253.501Z" fill="#969696"/>
</g>
</g>
<defs>
<filter id="filter0_b_2777_51428" x="-8" y="-8" width="618" height="298" filterUnits="userSpaceOnUse" color-interpolation-filters="sRGB">
<feFlood flood-opacity="0" result="BackgroundImageFix"/>
<feGaussianBlur in="BackgroundImageFix" stdDeviation="4"/>
<feComposite in2="SourceAlpha" operator="in" result="effect1_backgroundBlur_2777_51428"/>
<feBlend mode="normal" in="SourceGraphic" in2="effect1_backgroundBlur_2777_51428" result="shape"/>
</filter>
<clipPath id="clip0_2777_51428">
<rect width="569.533" height="155.256" fill="white" transform="translate(16 110.278)"/>
</clipPath>
<clipPath id="clip1_2777_51428">
<rect width="12" height="168.089" fill="white" transform="translate(24.123 88.0593)"/>
</clipPath>
</defs>
</svg>
