<svg width="24" height="24" viewBox="0 0 24 24" fill="none" xmlns="http://www.w3.org/2000/svg">
<path d="M0.837891 23.1621H23.1635" stroke="#FEFEFF"/>
<path d="M23.1628 23.5001H0.837209C0.655677 23.5001 0.5 23.3444 0.5 23.1629C0.5 22.9814 0.655677 22.8257 0.837209 22.8257H23.1628C23.3443 22.8257 23.5 22.9814 23.5 23.1629C23.5 23.3444 23.3443 23.5001 23.1628 23.5001Z" fill="#FEFEFF" stroke="#FEFEFF"/>
<path d="M22.0435 24H1.95049C1.49282 24 1.11328 23.6205 1.11328 23.1628V5.30233C1.11328 1.93116 3.04444 0 6.41561 0H17.5784C20.9496 0 22.8807 1.93116 22.8807 5.30233V23.1628C22.8807 23.6205 22.5012 24 22.0435 24ZM2.7877 22.3256H21.2063V5.30233C21.2063 2.82419 20.0565 1.67442 17.5784 1.67442H6.41561C3.93747 1.67442 2.7877 2.82419 2.7877 5.30233V22.3256Z" fill="#FEFEFF"/>
<path d="M9.77003 17.8609H6.42119C5.96352 17.8609 5.58398 17.4814 5.58398 17.0237C5.58398 16.5661 5.96352 16.1865 6.42119 16.1865H9.77003C10.2277 16.1865 10.6072 16.5661 10.6072 17.0237C10.6072 17.4814 10.2277 17.8609 9.77003 17.8609Z" fill="#FEFEFF"/>
<path d="M17.5806 17.8609H14.2317C13.7741 17.8609 13.3945 17.4814 13.3945 17.0237C13.3945 16.5661 13.7741 16.1865 14.2317 16.1865H17.5806C18.0383 16.1865 18.4178 16.5661 18.4178 17.0237C18.4178 17.4814 18.0383 17.8609 17.5806 17.8609Z" fill="#FEFEFF"/>
<path d="M9.77003 12.8365H6.42119C5.96352 12.8365 5.58398 12.457 5.58398 11.9993C5.58398 11.5416 5.96352 11.1621 6.42119 11.1621H9.77003C10.2277 11.1621 10.6072 11.5416 10.6072 11.9993C10.6072 12.457 10.2277 12.8365 9.77003 12.8365Z" fill="#FEFEFF"/>
<path d="M17.5806 12.8365H14.2317C13.7741 12.8365 13.3945 12.457 13.3945 11.9993C13.3945 11.5416 13.7741 11.1621 14.2317 11.1621H17.5806C18.0383 11.1621 18.4178 11.5416 18.4178 11.9993C18.4178 12.457 18.0383 12.8365 17.5806 12.8365Z" fill="#FEFEFF"/>
<path d="M9.77003 7.81504H6.42119C5.96352 7.81504 5.58398 7.43551 5.58398 6.97783C5.58398 6.52016 5.96352 6.14062 6.42119 6.14062H9.77003C10.2277 6.14062 10.6072 6.52016 10.6072 6.97783C10.6072 7.43551 10.2277 7.81504 9.77003 7.81504Z" fill="#FEFEFF"/>
<path d="M17.5806 7.81358H14.2317C13.7741 7.81358 13.3945 7.43404 13.3945 6.97637C13.3945 6.5187 13.7741 6.13916 14.2317 6.13916H17.5806C18.0383 6.13916 18.4178 6.5187 18.4178 6.97637C18.4178 7.43404 18.0383 7.81358 17.5806 7.81358Z" fill="#FEFEFF"/>
</svg>
