<svg width="18" height="18" viewBox="0 0 18 18" fill="none" xmlns="http://www.w3.org/2000/svg">
<path d="M16.7252 15.6355H14.5865V2.08973C14.5865 2.0222 14.5616 1.95705 14.5166 1.90671C14.4716 1.85638 14.4096 1.82439 14.3425 1.81686L7.12057 1.00173C7.08214 0.997397 7.04322 1.00123 7.00637 1.01297C6.96952 1.02472 6.93557 1.04411 6.90673 1.06988C6.87789 1.09565 6.85481 1.12722 6.83902 1.16253C6.82322 1.19783 6.81505 1.23607 6.81505 1.27475V1.81498H3.68828C3.61541 1.81498 3.54553 1.84393 3.494 1.89545C3.44248 1.94698 3.41353 2.01686 3.41353 2.08973V15.6355H1.27475C1.20188 15.6355 1.132 15.6645 1.08047 15.716C1.02895 15.7675 1 15.8374 1 15.9103C1 15.9831 1.02895 16.053 1.08047 16.1045C1.132 16.1561 1.20188 16.185 1.27475 16.185H6.81505V16.7252C6.81505 16.7981 6.844 16.868 6.89552 16.9195C6.94705 16.971 7.01693 17 7.0898 17C7.10029 17.0001 7.11078 16.9995 7.1212 16.9983L14.3274 16.185H16.7257C16.7986 16.185 16.8685 16.1561 16.92 16.1045C16.9715 16.053 17.0005 15.9831 17.0005 15.9103C17.0005 15.8374 16.9715 15.7675 16.92 15.716C16.8685 15.6645 16.7986 15.6355 16.7257 15.6355H16.7252ZM3.96303 2.36447H6.81505V3.07096H4.94411C4.87124 3.07096 4.80136 3.09991 4.74983 3.15144C4.69831 3.20296 4.66936 3.27284 4.66936 3.34571V15.6355H3.96287L3.96303 2.36447ZM5.21901 15.6355V3.62046H6.81505V15.6355H5.21901ZM7.36455 1.58215L14.037 2.33574V15.6649L7.36455 16.4185V1.58215Z" fill="#080708" stroke="#080708" stroke-width="0.5"/>
<path d="M8.54812 8.18262C8.3864 8.18262 8.22832 8.23057 8.09386 8.32042C7.95939 8.41026 7.85459 8.53796 7.79271 8.68736C7.73082 8.83677 7.71463 9.00117 7.74618 9.15978C7.77773 9.31839 7.8556 9.46408 7.96995 9.57843C8.0843 9.69278 8.22999 9.77065 8.3886 9.8022C8.54721 9.83375 8.71161 9.81756 8.86101 9.75567C9.01042 9.69378 9.13812 9.58898 9.22796 9.45452C9.31781 9.32006 9.36576 9.16198 9.36576 9.00026C9.36551 8.78349 9.27929 8.57566 9.126 8.42238C8.97272 8.26909 8.76489 8.18287 8.54812 8.18262ZM8.54812 9.26842C8.49508 9.26842 8.44324 9.25269 8.39914 9.22322C8.35504 9.19376 8.32067 9.15188 8.30037 9.10288C8.28008 9.05388 8.27477 8.99997 8.28511 8.94795C8.29546 8.89593 8.321 8.84815 8.3585 8.81065C8.396 8.77315 8.44378 8.74761 8.4958 8.73726C8.54782 8.72692 8.60173 8.73223 8.65073 8.75252C8.69973 8.77282 8.74161 8.80719 8.77108 8.85129C8.80054 8.89538 8.81627 8.94723 8.81627 9.00026C8.81618 9.07136 8.78791 9.13951 8.73764 9.18978C8.68737 9.24005 8.61921 9.26833 8.54812 9.26842Z" fill="#080708" stroke="#080708" stroke-width="0.5"/>
</svg>
