<svg width="24" height="24" viewBox="0 0 24 24" fill="none" xmlns="http://www.w3.org/2000/svg">
<path d="M21.6982 13.5934C21.8526 12.5307 21.8355 11.45 21.6474 10.3926L21.8757 10.011C21.9765 9.84957 22.0346 9.66507 22.0443 9.47496C22.0541 9.28484 22.0153 9.09537 21.9315 8.92443C21.8477 8.75348 21.7218 8.6067 21.5655 8.49794C21.4093 8.38918 21.2279 8.32202 21.0385 8.3028C20.3412 6.60019 19.1941 5.11917 17.72 4.01811C16.246 2.91705 14.5003 2.23737 12.6698 2.05178C10.8393 1.86618 8.9928 2.18164 7.32773 2.96442C5.66266 3.74719 4.24168 4.96785 3.21676 6.49583C2.19184 8.02381 1.60152 9.80165 1.50895 11.6392C1.41638 13.4768 1.82503 15.3049 2.69121 16.9282C3.55738 18.5514 4.84849 19.9087 6.42646 20.8549C8.00444 21.801 9.80991 22.3005 11.6498 22.2998C12.7413 22.3008 13.8257 22.1246 14.8607 21.7781C14.7865 21.9822 14.7885 22.2062 14.8663 22.4089C14.9441 22.6117 15.0924 22.7795 15.284 22.8817C15.4226 22.9588 15.5785 22.9996 15.7371 23C15.8756 22.9996 16.0122 22.9673 16.1363 22.9057C16.2604 22.8441 16.3686 22.7548 16.4527 22.6446L22.2646 15.357C22.3769 15.213 22.4523 15.0437 22.4842 14.8639C22.5162 14.6841 22.5037 14.4992 22.4478 14.3254C22.392 14.1515 22.2945 13.9939 22.1638 13.8664C22.0332 13.7388 21.8733 13.6451 21.6982 13.5934ZM21.103 12.1464C21.1007 12.6154 21.063 13.0835 20.9902 13.5469H19.7571L21.0679 11.3597C21.09 11.6212 21.103 11.8838 21.103 12.1464ZM2.19665 12.1464C2.19545 9.98155 2.9377 7.88196 4.29923 6.19888C5.66075 4.5158 7.55896 3.35132 9.67628 2.90026C11.7936 2.4492 14.0016 2.73892 15.9309 3.72094C17.8602 4.70297 19.3937 6.31774 20.2749 8.2951H19.5012C18.9568 7.18303 18.1826 6.19919 17.2298 5.40861C16.2769 4.61803 15.1671 4.03874 13.9736 3.70904C12.7802 3.37933 11.5304 3.30673 10.3068 3.49603C9.08321 3.68532 7.91375 4.13221 6.87575 4.80713C5.83774 5.48205 4.95483 6.36964 4.2854 7.4112C3.61597 8.45276 3.17527 9.62456 2.99244 10.8491C2.80961 12.0737 2.88881 13.3231 3.22482 14.5148C3.56082 15.7065 4.14597 16.8132 4.94157 17.7619C5.03244 17.8705 5.14493 17.9591 5.27187 18.0219C5.39881 18.0847 5.53743 18.1204 5.67891 18.1267C5.69537 18.1267 5.71147 18.1267 5.72758 18.1267C5.86554 18.1268 6.00216 18.0997 6.12963 18.0469C6.25711 17.9942 6.37295 17.9168 6.47053 17.8193L7.97253 16.3173C8.15337 16.1345 8.26088 15.8918 8.27469 15.635C8.2885 15.3782 8.20765 15.1253 8.04745 14.9242C7.59883 14.3433 7.2976 13.6624 7.16952 12.9397C7.04145 12.217 7.09033 11.474 7.312 10.7743C7.53367 10.0746 7.92153 9.43902 8.44239 8.92191C8.96325 8.4048 9.60163 8.02154 10.3029 7.80494C10.0924 8.84138 9.96646 9.8932 9.92618 10.95C9.70673 11.265 9.57779 11.6341 9.55336 12.0172C9.52893 12.4003 9.60994 12.7828 9.7876 13.1231C9.96526 13.4634 10.2328 13.7485 10.5611 13.9474C10.8894 14.1464 11.2659 14.2516 11.6498 14.2516C12.0337 14.2516 12.4102 14.1464 12.7385 13.9474C13.0668 13.7485 13.3343 13.4634 13.512 13.1231C13.6897 12.7828 13.7707 12.4003 13.7462 12.0172C13.7218 11.6341 13.5929 11.265 13.3734 10.95C13.3331 9.89261 13.207 8.84021 12.9964 7.80319C13.6151 7.99811 14.1855 8.3221 14.6699 8.75374C15.1542 9.18538 15.5414 9.71487 15.806 10.3072L14.1605 15.2225C14.1041 15.3912 14.0887 15.5708 14.1156 15.7466C14.1424 15.9224 14.2107 16.0893 14.3148 16.2334C14.4189 16.3776 14.5558 16.4949 14.7143 16.5757C14.8727 16.6564 15.0481 16.6983 15.2259 16.6979H16.6365L15.1587 20.9235C13.7244 21.4968 12.1715 21.7099 10.6359 21.5443C9.10018 21.3786 7.62849 20.8391 6.34953 19.9731C5.07057 19.1071 4.0233 17.9408 3.29934 16.5764C2.57537 15.212 2.19677 13.691 2.19665 12.1464ZM16.223 9.06116L16.1152 9.38396C15.9642 9.13811 15.7931 8.90519 15.6037 8.68758L17.579 6.71222C18.0206 7.19227 18.4027 7.72371 18.7173 8.2951H17.2898C17.0541 8.29475 16.8243 8.36854 16.6328 8.50602C16.4414 8.6435 16.298 8.8377 16.223 9.06116ZM11.6498 10.7459C11.9268 10.7459 12.1976 10.8281 12.4279 10.9819C12.6582 11.1358 12.8377 11.3545 12.9437 11.6104C13.0497 11.8664 13.0774 12.1479 13.0234 12.4196C12.9693 12.6913 12.8359 12.9408 12.6401 13.1367C12.4442 13.3325 12.1947 13.4659 11.923 13.5199C11.6514 13.574 11.3698 13.5462 11.1139 13.4402C10.858 13.3342 10.6392 13.1547 10.4854 12.9244C10.3315 12.6941 10.2493 12.4234 10.2493 12.1464C10.2493 11.775 10.3969 11.4187 10.6595 11.1561C10.9222 10.8935 11.2784 10.7459 11.6498 10.7459ZM11.6498 10.0457C11.3071 10.0454 10.9695 10.1296 10.667 10.2908C10.848 7.88126 11.3487 6.4871 11.6498 5.84428C11.9527 6.4871 12.4551 7.88476 12.6347 10.2908C12.3316 10.1293 11.9933 10.0451 11.6498 10.0457ZM12.2821 5.54774C12.2261 5.42727 12.1369 5.32532 12.0249 5.25387C11.9129 5.18243 11.7828 5.14447 11.65 5.14447C11.5171 5.14447 11.3871 5.18243 11.2751 5.25387C11.1631 5.32532 11.0738 5.42727 11.0178 5.54774C10.7995 6.02641 10.6226 6.52295 10.4892 7.03188C9.63908 7.22284 8.85011 7.62298 8.1938 8.19602L6.21354 6.21541C7.69491 4.85037 9.63558 4.09257 11.65 4.09257C13.6644 4.09257 15.605 4.85037 17.0864 6.21541L15.1086 8.19322C14.4516 7.6188 13.6611 7.2182 12.8094 7.02803C12.6761 6.52049 12.4997 6.02526 12.2821 5.54774ZM5.71918 6.71082L7.69979 8.69143C6.89777 9.6052 6.43848 10.7694 6.40061 11.9847C6.36273 13.1999 6.74862 14.3905 7.49217 15.3524C7.54781 15.4191 7.57705 15.504 7.57434 15.5908C7.57163 15.6777 7.53716 15.7605 7.47746 15.8237L5.97546 17.3257C5.94045 17.3594 5.89907 17.3857 5.85374 17.4032C5.80841 17.4207 5.76004 17.429 5.71147 17.4275C5.66694 17.4259 5.62326 17.4148 5.58326 17.3952C5.54327 17.3755 5.50786 17.3477 5.47935 17.3134C4.22347 15.8191 3.55507 13.9184 3.59921 11.9669C3.64335 10.0154 4.39701 8.14684 5.71918 6.71082ZM21.715 14.9235L15.903 22.2115C15.8725 22.2551 15.8264 22.2853 15.7743 22.2959C15.7222 22.3064 15.668 22.2966 15.6229 22.2683C15.5754 22.2454 15.5385 22.2051 15.5199 22.1557C15.5014 22.1063 15.5027 22.0517 15.5235 22.0032L17.4617 16.4633C17.4802 16.4104 17.4858 16.3539 17.4779 16.2984C17.47 16.2429 17.4489 16.1902 17.4163 16.1446C17.3838 16.0989 17.3408 16.0618 17.291 16.0362C17.2411 16.0107 17.1859 15.9974 17.1298 15.9977H15.2259C15.1585 15.9983 15.092 15.9827 15.0319 15.9523C14.9718 15.9218 14.92 15.8773 14.8807 15.8226C14.8415 15.7689 14.8158 15.7066 14.8057 15.641C14.7957 15.5753 14.8016 15.5081 14.8229 15.4452L16.8886 9.28488C16.9167 9.20066 16.9706 9.1274 17.0426 9.07544C17.1145 9.02349 17.201 8.99547 17.2898 8.99533H20.9233C20.9994 8.99472 21.0741 9.01475 21.1397 9.05328C21.2052 9.09182 21.2591 9.14742 21.2955 9.21416C21.3327 9.28053 21.3509 9.35584 21.3481 9.43186C21.3453 9.50788 21.3217 9.58167 21.2798 9.64515L18.8387 13.717C18.8069 13.7701 18.7897 13.8308 18.789 13.8927C18.7882 13.9547 18.8039 14.0157 18.8345 14.0696C18.865 14.1235 18.9093 14.1683 18.9628 14.1995C19.0164 14.2307 19.0772 14.2471 19.1391 14.2471H21.3774C21.4572 14.246 21.5356 14.2678 21.6033 14.31C21.671 14.3521 21.7252 14.4128 21.7594 14.4848C21.7946 14.5546 21.8091 14.6329 21.8013 14.7107C21.7934 14.7884 21.7634 14.8622 21.715 14.9235Z" fill="#FEFEFF" stroke="#FEFEFF" stroke-width="0.5"/>
</svg>
