<svg width="24" height="24" viewBox="0 0 24 24" fill="none" xmlns="http://www.w3.org/2000/svg">
<path d="M19.0771 13.6013V5.00526C19.0771 3.34474 17.731 2 16.0718 2C14.4126 2 13.0665 3.34474 13.0665 5.00526V13.6013C12.01 14.4697 11.335 15.7882 11.335 17.2632C11.335 19.8776 13.4547 22 16.0718 22C18.6889 22 20.8086 19.8789 20.8086 17.2632C20.8073 15.7882 20.1336 14.4697 19.0771 13.6013ZM16.0718 20.6289C14.2165 20.6289 12.706 19.1184 12.706 17.2632C12.706 16.2526 13.1547 15.3039 13.9376 14.6605L14.4376 14.2487V5.00526C14.4376 4.10395 15.1705 3.37105 16.0718 3.37105C16.9731 3.37105 17.706 4.10395 17.706 5.00526V14.25L18.206 14.6618C18.9889 15.3053 19.4376 16.2539 19.4376 17.2645C19.4363 19.1184 17.9271 20.6289 16.0718 20.6289Z" fill="#2377D1"/>
<path d="M16.0784 19.5066C14.8415 19.5066 13.835 18.5 13.835 17.2632C13.835 16.5895 14.135 15.9566 14.656 15.5276L15.4424 14.7803V10.3333C15.4424 10.0504 15.5016 9.5 16.0784 9.5C16.5902 9.5 16.5902 10.0518 16.5902 10.3333V14.7803L17.5008 15.5276C17.7578 15.7379 17.9648 16.0027 18.1068 16.3029C18.2488 16.6031 18.3223 16.9311 18.3218 17.2632C18.3218 18.5 17.3152 19.5066 16.0784 19.5066Z" fill="#2377D1"/>
<path d="M11.4834 8.77726C11.4834 7.12499 9.38379 4.098 8.13642 2.44572C7.68906 1.85143 6.79109 1.85143 6.34373 2.44572C5.09963 4.098 3 7.12499 3 8.77726C3 11.1153 4.89391 13.019 7.24171 13.019C9.57971 13.019 11.4834 11.1153 11.4834 8.77726ZM4.94942 7.78133C4.94942 7.24254 5.38698 6.80825 5.92577 6.80825C6.46455 6.80825 6.89884 7.24581 6.89884 7.78133C6.89884 8.31684 6.46129 8.7544 5.92577 8.7544C5.79767 8.75496 5.67072 8.7302 5.55223 8.68154C5.43373 8.63287 5.32603 8.56127 5.2353 8.47084C5.14456 8.38041 5.0726 8.27295 5.02354 8.15462C4.97448 8.03628 4.94929 7.90942 4.94942 7.78133ZM6.37639 10.9846C6.31434 11.0761 6.21638 11.1283 6.11189 11.1283C6.05027 11.1287 5.98996 11.1105 5.93883 11.0761C5.90406 11.0534 5.87411 11.024 5.85069 10.9898C5.82728 10.9555 5.81085 10.9169 5.80236 10.8763C5.79387 10.8356 5.79347 10.7937 5.8012 10.7529C5.80893 10.7121 5.82463 10.6732 5.8474 10.6385L8.35846 6.79845C8.38119 6.76372 8.41053 6.7338 8.44482 6.71041C8.47911 6.68701 8.51767 6.6706 8.55831 6.66211C8.59894 6.65362 8.64084 6.65322 8.68163 6.66093C8.72242 6.66863 8.76129 6.68429 8.79602 6.70702C8.83075 6.72975 8.86067 6.75909 8.88406 6.79338C8.90746 6.82767 8.92387 6.86623 8.93236 6.90686C8.94085 6.9475 8.94125 6.9894 8.93355 7.03019C8.92584 7.07098 8.91018 7.10985 8.88745 7.14458L6.37639 10.9846ZM8.62622 11.2034C8.08744 11.2034 7.65314 10.7659 7.65314 10.2271C7.65314 9.6883 8.0907 9.254 8.62622 9.254C8.8846 9.254 9.13244 9.35642 9.31545 9.53881C9.49846 9.72121 9.6017 9.96871 9.60256 10.2271C9.60188 10.4858 9.49879 10.7337 9.31584 10.9167C9.13289 11.0997 8.88495 11.2027 8.62622 11.2034Z" fill="#2377D1"/>
</svg>
