<svg width="18" height="18" viewBox="0 0 18 18" fill="none" xmlns="http://www.w3.org/2000/svg">
<path d="M16.9847 16.6824L14.6466 10.5263C14.6121 10.4353 14.5249 10.3751 14.4276 10.3751L11.1616 10.3744L12.7694 7.82528C13.2167 7.11547 13.4531 6.29519 13.4531 5.45313C13.4531 2.99766 11.4555 1 8.99999 1C6.54452 1 4.54686 2.99766 4.54686 5.45313C4.54686 6.29541 4.78342 7.11572 5.23099 7.82535C5.24295 7.84438 6.83771 10.3735 6.83771 10.3735L3.57223 10.3728C3.47483 10.3728 3.38761 10.433 3.35308 10.524L2.08586 13.8622C2.03992 13.9832 2.1008 14.1186 2.2218 14.1645C2.24917 14.1749 2.27726 14.1798 2.30492 14.1798C2.39945 14.1798 2.48855 14.1222 2.52408 14.0286L3.73386 10.8416L7.13327 10.8423L7.42886 11.3111L6.5852 11.3109C6.47258 11.3109 6.37589 11.391 6.35489 11.5016L5.89786 13.9094C5.88483 13.978 5.90308 14.0488 5.94761 14.1026C5.99214 14.1564 6.05833 14.1875 6.12814 14.1875H11.8718C11.9416 14.1875 12.0078 14.1564 12.0523 14.1026C12.0968 14.0488 12.1151 13.978 12.102 13.9094L11.6451 11.5024C11.6241 11.3918 11.5274 11.3117 11.4148 11.3117H10.5705L10.866 10.8431L14.2657 10.8438L16.4259 16.5313H1.57401L2.16073 14.9857C2.20667 14.8647 2.1458 14.7293 2.0248 14.6834C1.90383 14.6374 1.76842 14.6983 1.72251 14.8193L1.01526 16.6824C0.987921 16.7545 0.997702 16.8354 1.04148 16.8988C1.08523 16.9622 1.15736 17 1.23439 17H16.7656C16.8427 17 16.9148 16.9621 16.9586 16.8987C17.0023 16.8353 17.0121 16.7544 16.9847 16.6824ZM5.62745 7.57528C5.2272 6.94063 5.01561 6.20678 5.01561 5.45313C5.01561 3.25613 6.80299 1.46875 8.99999 1.46875C11.197 1.46875 12.9844 3.25613 12.9844 5.45313C12.9844 6.20663 12.7729 6.9405 12.3728 7.57528C12.3555 7.60272 9.22342 12.5691 9.19949 12.6067L9.19808 12.6089C9.15461 12.6777 9.08058 12.7188 8.99999 12.7188C8.91933 12.7188 8.84496 12.6775 8.80146 12.609C8.78746 12.5868 5.65452 7.61844 5.62852 7.577L5.62745 7.57528ZM11.2208 11.7805L11.5888 13.7188H6.4112L6.77927 11.7797L7.72452 11.7799L8.40546 12.8598C8.53586 13.065 8.75814 13.1875 8.99999 13.1875C9.24236 13.1875 9.46455 13.0648 9.59439 12.8592C9.6063 12.8405 10.2749 11.7804 10.2749 11.7804L11.2208 11.7805Z" fill="#080708"/>
<path d="M5.71982 14.8469L5.54188 15.7844C5.52885 15.853 5.5471 15.9238 5.59163 15.9776C5.63616 16.0314 5.70235 16.0625 5.77216 16.0625H15.4066C15.4837 16.0625 15.5558 16.0246 15.5995 15.9612C15.6433 15.8978 15.6531 15.8169 15.6257 15.7449L15.2697 14.8074C15.2351 14.7164 15.1479 14.6562 15.0505 14.6562H5.9501C5.8375 14.6562 5.74082 14.7363 5.71982 14.8469ZM6.14416 15.125H14.8889L15.0669 15.5937H6.05519L6.14416 15.125Z" fill="#080708"/>
<path d="M2.73008 14.8074L2.37421 15.7449C2.34686 15.817 2.35664 15.8978 2.40042 15.9613C2.44417 16.0246 2.5163 16.0625 2.59333 16.0625H4.8183C4.93089 16.0625 5.02758 15.9824 5.04858 15.8718L5.22652 14.9343C5.23955 14.8658 5.2213 14.7949 5.17677 14.7411C5.13224 14.6873 5.06605 14.6562 4.99624 14.6562H2.94921C2.85186 14.6562 2.76464 14.7164 2.73008 14.8074ZM4.71318 15.125L4.62421 15.5938H2.93299L3.11092 15.125H4.71318Z" fill="#080708"/>
<path d="M5.63089 11.3111L4.21895 11.3108C4.12155 11.3108 4.03433 11.371 3.9998 11.462L3.08558 13.8702C3.05823 13.9423 3.06801 14.0231 3.1118 14.0865C3.15555 14.1499 3.22767 14.1878 3.3047 14.1878H5.1738C5.28639 14.1878 5.38308 14.1077 5.40408 13.9971L5.86114 11.5891C5.87417 11.5205 5.85592 11.4497 5.81142 11.396C5.76689 11.3422 5.7007 11.3111 5.63089 11.3111ZM4.9797 13.7191H3.64436L4.38064 11.7796L5.34783 11.7798L4.9797 13.7191Z" fill="#080708"/>
<path d="M12.826 14.1874H14.6944C14.7715 14.1874 14.8436 14.1495 14.8874 14.0861C14.9311 14.0227 14.9409 13.9418 14.9136 13.8698L13.9997 11.4635C13.9651 11.3726 13.8779 11.3124 13.7806 11.3124L12.369 11.3121C12.2991 11.3121 12.2329 11.3432 12.1884 11.397C12.1439 11.4508 12.1256 11.5216 12.1387 11.5902L12.5957 13.9968C12.6167 14.1074 12.7134 14.1874 12.826 14.1874ZM13.6188 11.7811L14.3547 13.7187H13.02L12.652 11.7809L13.6188 11.7811Z" fill="#080708"/>
<path d="M9 8.03125C10.4216 8.03125 11.5781 6.87469 11.5781 5.45313C11.5781 4.03156 10.4216 2.875 9 2.875C7.57841 2.875 6.42187 4.03156 6.42187 5.45313C6.42187 6.87469 7.57841 8.03125 9 8.03125ZM9 3.34375C10.1631 3.34375 11.1094 4.29 11.1094 5.45313C11.1094 6.61625 10.1631 7.5625 9 7.5625C7.83688 7.5625 6.89062 6.61625 6.89062 5.45313C6.89062 4.29 7.83688 3.34375 9 3.34375Z" fill="#080708"/>
<path d="M9 7.09375C9.90462 7.09375 10.6406 6.35775 10.6406 5.45313C10.6406 4.5485 9.90462 3.8125 9 3.8125C8.09534 3.8125 7.35937 4.5485 7.35937 5.45313C7.35937 6.35775 8.09534 7.09375 9 7.09375ZM9 4.28125C9.64619 4.28125 10.1719 4.80694 10.1719 5.45313C10.1719 6.09931 9.64619 6.625 9 6.625C8.35381 6.625 7.82812 6.09931 7.82812 5.45313C7.82812 4.80694 8.35381 4.28125 9 4.28125Z" fill="#080708"/>
<path d="M16.9847 16.6824L14.6466 10.5263C14.6121 10.4353 14.5249 10.3751 14.4276 10.3751L11.1616 10.3744L12.7694 7.82528C13.2167 7.11547 13.4531 6.29519 13.4531 5.45313C13.4531 2.99766 11.4555 1 8.99999 1C6.54452 1 4.54686 2.99766 4.54686 5.45313C4.54686 6.29541 4.78342 7.11572 5.23099 7.82535C5.24295 7.84438 6.83771 10.3735 6.83771 10.3735L3.57223 10.3728C3.47483 10.3728 3.38761 10.433 3.35308 10.524L2.08586 13.8622C2.03992 13.9832 2.1008 14.1186 2.2218 14.1645C2.24917 14.1749 2.27726 14.1798 2.30492 14.1798C2.39945 14.1798 2.48855 14.1222 2.52408 14.0286L3.73386 10.8416L7.13327 10.8423L7.42886 11.3111L6.5852 11.3109C6.47258 11.3109 6.37589 11.391 6.35489 11.5016L5.89786 13.9094C5.88483 13.978 5.90308 14.0488 5.94761 14.1026C5.99214 14.1564 6.05833 14.1875 6.12814 14.1875H11.8718C11.9416 14.1875 12.0078 14.1564 12.0523 14.1026C12.0968 14.0488 12.1151 13.978 12.102 13.9094L11.6451 11.5024C11.6241 11.3918 11.5274 11.3117 11.4148 11.3117H10.5705L10.866 10.8431L14.2657 10.8438L16.4259 16.5313H1.57401L2.16073 14.9857C2.20667 14.8647 2.1458 14.7293 2.0248 14.6834C1.90383 14.6374 1.76842 14.6983 1.72251 14.8193L1.01526 16.6824C0.987921 16.7545 0.997702 16.8354 1.04148 16.8988C1.08523 16.9622 1.15736 17 1.23439 17H16.7656C16.8427 17 16.9148 16.9621 16.9586 16.8987C17.0023 16.8353 17.0121 16.7544 16.9847 16.6824ZM5.62745 7.57528C5.2272 6.94063 5.01561 6.20678 5.01561 5.45313C5.01561 3.25613 6.80299 1.46875 8.99999 1.46875C11.197 1.46875 12.9844 3.25613 12.9844 5.45313C12.9844 6.20663 12.7729 6.9405 12.3728 7.57528C12.3555 7.60272 9.22342 12.5691 9.19949 12.6067L9.19808 12.6089C9.15461 12.6777 9.08058 12.7188 8.99999 12.7188C8.91933 12.7188 8.84496 12.6775 8.80146 12.609C8.78746 12.5868 5.65452 7.61844 5.62852 7.577L5.62745 7.57528ZM11.2208 11.7805L11.5888 13.7188H6.4112L6.77927 11.7797L7.72452 11.7799L8.40546 12.8598C8.53586 13.065 8.75814 13.1875 8.99999 13.1875C9.24236 13.1875 9.46455 13.0648 9.59439 12.8592C9.6063 12.8405 10.2749 11.7804 10.2749 11.7804L11.2208 11.7805Z" stroke="#080708" stroke-width="0.3"/>
<path d="M5.71982 14.8469L5.54188 15.7844C5.52885 15.853 5.5471 15.9238 5.59163 15.9776C5.63616 16.0314 5.70235 16.0625 5.77216 16.0625H15.4066C15.4837 16.0625 15.5558 16.0246 15.5995 15.9612C15.6433 15.8978 15.6531 15.8169 15.6257 15.7449L15.2697 14.8074C15.2351 14.7164 15.1479 14.6562 15.0505 14.6562H5.9501C5.8375 14.6562 5.74082 14.7363 5.71982 14.8469ZM6.14416 15.125H14.8889L15.0669 15.5937H6.05519L6.14416 15.125Z" stroke="#080708" stroke-width="0.3"/>
<path d="M2.73008 14.8074L2.37421 15.7449C2.34686 15.817 2.35664 15.8978 2.40042 15.9613C2.44417 16.0246 2.5163 16.0625 2.59333 16.0625H4.8183C4.93089 16.0625 5.02758 15.9824 5.04858 15.8718L5.22652 14.9343C5.23955 14.8658 5.2213 14.7949 5.17677 14.7411C5.13224 14.6873 5.06605 14.6562 4.99624 14.6562H2.94921C2.85186 14.6562 2.76464 14.7164 2.73008 14.8074ZM4.71318 15.125L4.62421 15.5938H2.93299L3.11092 15.125H4.71318Z" stroke="#080708" stroke-width="0.3"/>
<path d="M5.63089 11.3111L4.21895 11.3108C4.12155 11.3108 4.03433 11.371 3.9998 11.462L3.08558 13.8702C3.05823 13.9423 3.06801 14.0231 3.1118 14.0865C3.15555 14.1499 3.22767 14.1878 3.3047 14.1878H5.1738C5.28639 14.1878 5.38308 14.1077 5.40408 13.9971L5.86114 11.5891C5.87417 11.5205 5.85592 11.4497 5.81142 11.396C5.76689 11.3422 5.7007 11.3111 5.63089 11.3111ZM4.9797 13.7191H3.64436L4.38064 11.7796L5.34783 11.7798L4.9797 13.7191Z" stroke="#080708" stroke-width="0.3"/>
<path d="M12.826 14.1874H14.6944C14.7715 14.1874 14.8436 14.1495 14.8874 14.0861C14.9311 14.0227 14.9409 13.9418 14.9136 13.8698L13.9997 11.4635C13.9651 11.3726 13.8779 11.3124 13.7806 11.3124L12.369 11.3121C12.2991 11.3121 12.2329 11.3432 12.1884 11.397C12.1439 11.4508 12.1256 11.5216 12.1387 11.5902L12.5957 13.9968C12.6167 14.1074 12.7134 14.1874 12.826 14.1874ZM13.6188 11.7811L14.3547 13.7187H13.02L12.652 11.7809L13.6188 11.7811Z" stroke="#080708" stroke-width="0.3"/>
<path d="M9 8.03125C10.4216 8.03125 11.5781 6.87469 11.5781 5.45313C11.5781 4.03156 10.4216 2.875 9 2.875C7.57841 2.875 6.42187 4.03156 6.42187 5.45313C6.42187 6.87469 7.57841 8.03125 9 8.03125ZM9 3.34375C10.1631 3.34375 11.1094 4.29 11.1094 5.45313C11.1094 6.61625 10.1631 7.5625 9 7.5625C7.83688 7.5625 6.89062 6.61625 6.89062 5.45313C6.89062 4.29 7.83688 3.34375 9 3.34375Z" stroke="#080708" stroke-width="0.3"/>
<path d="M9 7.09375C9.90462 7.09375 10.6406 6.35775 10.6406 5.45313C10.6406 4.5485 9.90462 3.8125 9 3.8125C8.09534 3.8125 7.35937 4.5485 7.35937 5.45313C7.35937 6.35775 8.09534 7.09375 9 7.09375ZM9 4.28125C9.64619 4.28125 10.1719 4.80694 10.1719 5.45313C10.1719 6.09931 9.64619 6.625 9 6.625C8.35381 6.625 7.82812 6.09931 7.82812 5.45313C7.82812 4.80694 8.35381 4.28125 9 4.28125Z" stroke="#080708" stroke-width="0.3"/>
</svg>
