<svg width="18" height="18" viewBox="0 0 18 18" fill="none" xmlns="http://www.w3.org/2000/svg">
<path d="M9 17C8.68821 17 8.37641 16.9365 8.08103 16.8094L2.50974 14.4118C1.59077 14.0148 1 13.1335 1 12.157C1 11.8315 1.27897 11.5615 1.61538 11.5615C1.95179 11.5615 2.23077 11.8394 2.23077 12.1649C2.23077 12.6651 2.53436 13.1256 3.01026 13.332L8.58154 15.7297C8.8441 15.8408 9.14769 15.8408 9.41846 15.7297L14.9897 13.332C15.4656 13.1256 15.7692 12.673 15.7692 12.1649C15.7692 11.8394 16.0482 11.5695 16.3846 11.5695C16.721 11.5695 17 11.8394 17 12.1649C17 13.1415 16.4092 14.0227 15.4903 14.4197L9.91897 16.8174C9.62359 16.9365 9.3118 17 9 17Z" fill="#080708" stroke="#080708" stroke-width="0.5"/>
<path d="M9 13.0301C8.68821 13.0301 8.37641 12.9666 8.08103 12.8396L2.50974 10.4419C1.66462 10.0846 1 9.09221 1 8.19506C1 7.86955 1.27897 7.59961 1.61538 7.59961C1.95179 7.59961 2.23077 7.86955 2.23077 8.19506C2.23077 8.63173 2.6 9.17954 3.01026 9.36215L8.58154 11.7598C8.8441 11.871 9.14769 11.871 9.41846 11.7598L14.9897 9.36215C15.4 9.18748 15.7692 8.63173 15.7692 8.19506C15.7692 7.86955 16.0482 7.59961 16.3846 7.59961C16.721 7.59961 17 7.86955 17 8.19506C17 9.09221 16.3354 10.0846 15.4903 10.4498L9.91897 12.8475C9.62359 12.9666 9.3118 13.0301 9 13.0301Z" fill="#080708" stroke="#080708" stroke-width="0.5"/>
<path d="M8.82761 8.89372C8.38453 8.89372 7.93325 8.81433 7.58043 8.66348L2.73941 6.58336C1.50864 6.05142 1.32812 5.33688 1.32812 4.94785C1.32812 4.55882 1.50864 3.84428 2.73941 3.31234L7.58043 1.23223C8.29428 0.922591 9.36915 0.922591 10.083 1.23223L14.9322 3.31234C16.1548 3.83634 16.3435 4.55882 16.3435 4.94785C16.3435 5.33688 16.163 6.05142 14.9322 6.58336L10.083 8.66348C9.72197 8.82226 9.27889 8.89372 8.82761 8.89372ZM8.82761 2.19289C8.54864 2.19289 8.27787 2.23259 8.08095 2.31992L3.23992 4.40004C2.73941 4.62234 2.55889 4.84464 2.55889 4.94785C2.55889 5.05106 2.73941 5.28131 3.23171 5.49567L8.07274 7.57578C8.46659 7.74251 9.18043 7.74251 9.57428 7.57578L14.4235 5.49567C14.924 5.28131 15.1045 5.05106 15.1045 4.94785C15.1045 4.84464 14.924 4.6144 14.4235 4.40004L9.58248 2.31992C9.38556 2.24053 9.10659 2.19289 8.82761 2.19289Z" fill="#080708" stroke="#080708" stroke-width="0.5"/>
</svg>
