<svg width="24" height="24" viewBox="0 0 24 24" fill="none" xmlns="http://www.w3.org/2000/svg">
<path fill-rule="evenodd" clip-rule="evenodd" d="M8.5293 17.3322C8.5293 18.5999 9.62984 19.6306 10.9839 19.6306C12.3379 19.6306 13.4385 18.5999 13.4385 17.3322C13.4385 16.0645 12.3379 15.0337 10.9839 15.0337C9.62983 15.0337 8.5293 16.0645 8.5293 17.3322ZM10.9839 18.6614C10.2018 18.6614 9.56452 18.0648 9.56452 17.3322C9.56452 16.5996 10.2018 16.0029 10.9839 16.0029C11.766 16.0029 12.4032 16.5996 12.4032 17.3322C12.4032 18.0648 11.766 18.6614 10.9839 18.6614Z" fill="#EE9300" stroke="#EE9300" stroke-width="0.5" stroke-miterlimit="10" stroke-linecap="round" stroke-linejoin="round"/>
<path fill-rule="evenodd" clip-rule="evenodd" d="M10.9854 16.0027C11.2713 16.0027 11.503 15.7857 11.503 15.5181V7.19152C11.503 6.92387 11.2713 6.7069 10.9854 6.7069C10.6995 6.7069 10.4678 6.92387 10.4678 7.19152V15.5181C10.4678 15.7857 10.6995 16.0027 10.9854 16.0027Z" fill="#EE9300" stroke="#EE9300" stroke-width="0.5" stroke-miterlimit="10" stroke-linecap="round" stroke-linejoin="round"/>
<path fill-rule="evenodd" clip-rule="evenodd" d="M10.9849 21.0308C8.80363 21.0308 7.03522 19.3749 7.03522 17.3321C7.03522 16.0591 7.72159 14.9362 8.76894 14.27C8.91077 14.1798 8.99568 14.0297 8.99568 13.8692V4.83203C8.99568 3.80314 9.88637 2.96923 10.9849 2.96923C12.0833 2.96923 12.974 3.80314 12.974 4.83203V13.8692C12.974 14.0297 13.059 14.1798 13.2008 14.27C14.2482 14.9362 14.9345 16.0591 14.9345 17.3321C14.9345 19.3749 13.1661 21.0308 10.9849 21.0308ZM6 17.3321C6 19.91 8.23171 22 10.9849 22C13.7381 22 15.9697 19.91 15.9697 17.3321C15.9697 15.8186 15.2001 14.4736 14.0093 13.6214V4.83203C14.0093 3.26801 12.6553 2 10.9849 2C9.31446 2 7.96046 3.26801 7.96046 4.83203V13.6214C6.7697 14.4736 6 15.8186 6 17.3321Z" fill="#EE9300" stroke="#EE9300" stroke-width="0.5" stroke-miterlimit="10" stroke-linecap="round" stroke-linejoin="round"/>
<path fill-rule="evenodd" clip-rule="evenodd" d="M15.5068 11.9402C15.5068 12.2078 15.7386 12.4248 16.0244 12.4248H17.9849C18.2708 12.4248 18.5025 12.2078 18.5025 11.9402C18.5025 11.6725 18.2708 11.4556 17.9849 11.4556H16.0244C15.7386 11.4556 15.5068 11.6725 15.5068 11.9402Z" fill="#EE9300" stroke="#EE9300" stroke-width="0.5" stroke-miterlimit="10" stroke-linecap="round" stroke-linejoin="round"/>
<path fill-rule="evenodd" clip-rule="evenodd" d="M15.5068 9.57081C15.5068 9.83845 15.7386 10.0554 16.0244 10.0554H17.9849C18.2708 10.0554 18.5025 9.83845 18.5025 9.57081C18.5025 9.30316 18.2708 9.08619 17.9849 9.08619H16.0244C15.7386 9.08619 15.5068 9.30316 15.5068 9.57081Z" fill="#EE9300" stroke="#EE9300" stroke-width="0.5" stroke-miterlimit="10" stroke-linecap="round" stroke-linejoin="round"/>
<path fill-rule="evenodd" clip-rule="evenodd" d="M15.5068 7.20142C15.5068 7.46907 15.7386 7.68604 16.0244 7.68604H17.9849C18.2708 7.68604 18.5025 7.46907 18.5025 7.20142C18.5025 6.93378 18.2708 6.71681 17.9849 6.71681H16.0244C15.7386 6.71681 15.5068 6.93378 15.5068 7.20142Z" fill="#EE9300" stroke="#EE9300" stroke-width="0.5" stroke-miterlimit="10" stroke-linecap="round" stroke-linejoin="round"/>
<path fill-rule="evenodd" clip-rule="evenodd" d="M15.5068 4.83204C15.5068 5.09968 15.7386 5.31665 16.0244 5.31665H17.9849C18.2708 5.31665 18.5025 5.09968 18.5025 4.83204C18.5025 4.56439 18.2708 4.34742 17.9849 4.34742H16.0244C15.7386 4.34742 15.5068 4.56439 15.5068 4.83204Z" fill="#EE9300" stroke="#EE9300" stroke-width="0.5" stroke-miterlimit="10" stroke-linecap="round" stroke-linejoin="round"/>
</svg>
