<svg width="26" height="26" viewBox="0 0 26 26" fill="none" xmlns="http://www.w3.org/2000/svg">
<path d="M12.9999 21.8987C14.7959 21.8987 16.3163 19.9537 17.0573 17.0578C19.9532 16.3168 21.8982 14.7964 21.8982 13.0004C21.8982 10.4536 17.9896 8.45851 12.9999 8.45851C11.9402 8.45564 10.8826 8.55107 9.84054 8.7436C10.5104 6.45884 11.6877 5.30184 12.9999 5.30184C13.686 5.30184 14.2522 5.33129 14.6592 5.7794L14.0728 6.024C13.869 6.10879 13.7725 6.34276 13.8573 6.54656C13.8862 6.61614 13.9343 6.67611 13.9958 6.71954L15.9752 8.11887C16.1555 8.24634 16.4051 8.20346 16.5326 8.02308C16.5699 7.97034 16.5938 7.90935 16.6024 7.84533L16.9171 5.48913C16.9264 5.41941 16.9172 5.34847 16.8903 5.28346C16.8635 5.21846 16.8199 5.1617 16.7641 5.11889C16.7083 5.07609 16.6422 5.04877 16.5724 5.03968C16.5027 5.03059 16.4318 5.04005 16.3668 5.06712L15.4335 5.45641C14.714 4.57287 13.8764 4.10205 12.9999 4.10205C11.2039 4.10205 9.68346 6.04709 8.94236 8.94285C6.0466 9.68395 4.10156 11.2044 4.10156 13.0004C4.10156 13.8768 4.57234 14.7145 5.45588 15.434L5.06659 16.3673C4.98159 16.5712 5.07797 16.8054 5.28186 16.8904C5.34714 16.9176 5.41849 16.927 5.4886 16.9176L7.8448 16.6028C8.06371 16.5736 8.21744 16.3723 8.18816 16.1534C8.17959 16.0894 8.15565 16.0284 8.11839 15.9757L6.71905 13.9962C6.67785 13.9379 6.62174 13.8916 6.55658 13.8623C6.49142 13.8329 6.41958 13.8216 6.34856 13.8294C6.27753 13.8373 6.20991 13.864 6.15273 13.9069C6.09556 13.9498 6.05092 14.0072 6.02347 14.0732L5.77887 14.6596C5.33076 14.2527 5.30131 13.6865 5.30131 13.0004C5.30131 11.6882 6.45831 10.5108 8.74307 9.84082C8.5505 10.8829 8.45507 11.9407 8.45798 13.0004C8.45802 17.9901 10.4531 21.8987 12.9999 21.8987ZM12.9999 9.25839C17.3897 9.25839 20.6985 10.9721 20.6985 13.0005C20.6985 14.3126 19.5414 15.4899 17.2565 16.1598C17.4491 15.1178 17.5445 14.0601 17.5416 13.0005C17.552 12.266 17.5063 11.5319 17.4049 10.8044C17.3784 10.5851 17.1791 10.4288 16.9599 10.4553C16.7407 10.4818 16.5843 10.681 16.6108 10.9003C16.7088 11.5959 16.7525 12.2981 16.7417 13.0005C16.7435 14.1375 16.623 15.2715 16.3822 16.3829C15.2709 16.6236 14.1369 16.7441 12.9998 16.7423C12.3123 16.7539 11.625 16.712 10.944 16.617C10.726 16.5818 10.5206 16.73 10.4854 16.948C10.4502 17.1661 10.5985 17.3714 10.8165 17.4066C11.5396 17.5089 12.2697 17.5542 12.9999 17.542C14.0596 17.5449 15.1172 17.4495 16.1593 17.257C15.4892 19.542 14.312 20.699 12.9998 20.699C10.9715 20.699 9.25777 17.3903 9.25777 13.0005C9.25595 11.8633 9.37648 10.7293 9.61728 9.61794C10.7287 9.37708 11.8627 9.25654 12.9999 9.25839Z" fill="#969696" stroke="#969696" stroke-width="0.45"/>
<path d="M3.00017 18.0539C0.213468 12.5306 2.43008 5.79302 7.95107 3.00517C12.1385 0.890697 17.1995 1.61123 20.631 4.81042L20.0727 5.37121C19.9168 5.52773 19.9173 5.78105 20.0737 5.93702C20.127 5.99017 20.1942 6.02719 20.2676 6.04382L22.55 6.56189C22.5791 6.56846 22.6089 6.5718 22.6387 6.57185C22.8596 6.57193 23.0387 6.39285 23.0387 6.17189C23.0388 6.13716 23.0342 6.10258 23.0253 6.06902L22.4363 3.84958C22.3795 3.63594 22.1602 3.50888 21.9466 3.5658C21.8783 3.584 21.816 3.61997 21.7661 3.67005L21.1954 4.24339C16.357 -0.285793 8.76466 -0.0335208 4.23736 4.80686C0.798033 8.48402 0.0189058 13.918 2.28626 18.4142C2.37988 18.6143 2.61795 18.7006 2.81799 18.6069C3.01803 18.5133 3.10429 18.2751 3.01067 18.075C3.00737 18.0679 3.00385 18.0609 3.00013 18.0541L3.00017 18.0539ZM23.7142 7.59659C23.6654 7.5036 23.582 7.43352 23.4821 7.40148C23.3821 7.36945 23.2736 7.37802 23.1798 7.42535C23.0861 7.47268 23.0148 7.55497 22.9812 7.65447C22.9476 7.75397 22.9545 7.86269 23.0003 7.95717C25.7861 13.4809 23.5685 20.2182 18.0471 23.0052C13.8604 25.1184 8.80102 24.3981 5.36989 21.2003L5.92755 20.6399C5.97797 20.5893 6.01391 20.526 6.03163 20.4567C6.04934 20.3875 6.0482 20.3147 6.0283 20.246C6.00841 20.1774 5.9705 20.1153 5.91851 20.0662C5.86652 20.0172 5.80235 19.9829 5.73266 19.9671L3.4505 19.4491C3.2351 19.4002 3.02088 19.5353 2.97202 19.7508C2.95771 19.8139 2.95893 19.8796 2.97557 19.9422L3.56453 22.1614C3.58714 22.2467 3.6373 22.3221 3.7072 22.3758C3.77709 22.4296 3.8628 22.4588 3.95098 22.4587C4.00361 22.4587 4.05572 22.4483 4.10434 22.4281C4.15295 22.408 4.19712 22.3784 4.23431 22.3411L4.80578 21.7674C9.64469 26.296 17.237 26.0427 21.7637 21.2018C25.2019 17.5249 25.9808 12.0921 23.7142 7.59659Z" fill="#969696" stroke="#969696" stroke-width="0.7"/>
</svg>
