<svg width="24" height="24" viewBox="0 0 24 24" fill="none" xmlns="http://www.w3.org/2000/svg">
<g clip-path="url(#clip0_4136_586)">
<path d="M8.53026 18.9999C5.00026 21.8299 2.20026 23.3099 1.45026 22.5499C0.700256 21.7899 2.17026 18.9999 5.00026 15.4699C6.56773 13.5583 8.2368 11.7324 10.0003 9.99993C10.6803 9.30993 11.3603 8.65993 12.0003 7.99993C13.2003 6.88993 14.3703 5.86993 15.4703 4.99993C19.0003 2.16993 21.8003 0.689927 22.5503 1.44993C23.3003 2.20993 21.8303 4.99993 19.0003 8.52993" stroke="#080708" stroke-width="1.5" stroke-miterlimit="10"/>
<path d="M15.4703 18.9999C19.0003 21.8199 21.8003 23.2999 22.5503 22.5399C23.3003 21.7799 21.8303 18.9999 19.0003 15.4699C18.1203 14.3699 17.1003 13.1999 16.0003 11.9999C15.3703 11.3299 14.7203 10.6499 14.0003 9.99993C13.2803 9.34993 12.6403 8.65993 12.0003 7.99993C10.8003 6.88993 9.63026 5.86993 8.53026 4.99993C5.00026 2.16993 2.20026 0.689927 1.45026 1.44993C0.700256 2.20993 2.17026 4.99993 5.00026 8.52993" stroke="#080708" stroke-width="1.5" stroke-miterlimit="10"/>
<path d="M11.9997 19.8202C16.3186 19.8202 19.8197 16.319 19.8197 12.0002C19.8197 7.68131 16.3186 4.18018 11.9997 4.18018C7.68082 4.18018 4.17969 7.68131 4.17969 12.0002C4.17969 16.319 7.68082 19.8202 11.9997 19.8202Z" stroke="#080708" stroke-width="1.5" stroke-miterlimit="10"/>
</g>
<defs>
<clipPath id="clip0_4136_586">
<rect width="24" height="24" fill="white"/>
</clipPath>
</defs>
</svg>
